<?xml version="1.0" standalone="no"?>
<!DOCTYPE svg PUBLIC "-//W3C//DTD SVG 1.1//EN" "http://www.w3.org/Graphics/SVG/1.1/DTD/svg11.dtd" >
<svg xmlns="http://www.w3.org/2000/svg">
<metadata>Generated by IcoMoon</metadata>
<defs>
<font id="icomoon" horiz-adv-x="1024">
<font-face units-per-em="1024" ascent="960" descent="-64" />
<missing-glyph horiz-adv-x="1024" />
<glyph unicode="&#x20;" horiz-adv-x="512" d="" />
<glyph unicode="&#xe900;" glyph-name="wpicon_set_-3" d="M342.085 419.6h-211.081l316.622-471.122zM250.81 614.715l112.719-118.559 89.394 118.559zM512.011 593.113l-85.45-113.327h170.9zM571.099 614.715l89.394-118.561 112.719 118.561zM187.355 594.113l-62.202-114.327h170.896zM681.937 419.6l-105.541-471.122 316.622 471.122zM403.76 419.6l108.251-483.216 108.251 483.216zM836.667 594.113l-108.693-114.327h170.894zM481.91 959.618h60.182v-165.304h-60.182v165.304zM218.632 895.279l55.604 23.032 63.263-152.728-55.604-23.032-63.263 152.728zM-0.003 735.065l42.554 42.554 116.885-116.885-42.554-42.554-116.885 116.885zM686.546 765.582l63.263 152.728 55.604-23.032-63.263-152.728-55.604 23.032zM864.552 660.726l116.885 116.885 42.554-42.554-116.885-116.885-42.554 42.554z" />
<glyph unicode="&#xe901;" glyph-name="wpicon_set_-4" d="M1006.933 89.6v409.6c5.487 0 10.637 2.637 13.845 7.087s4.081 10.172 2.347 15.377l-51.2 153.6c-2.323 6.97-8.845 11.669-16.19 11.669h-221.869v53.329c0.002 0 0.004 0 0.006 0 7.351 0 14.14 4.789 16.348 12.196 2.692 9.033-2.447 18.537-11.479 21.231l-221.867 66.133c-3.181 0.945-6.569 0.945-9.749 0l-221.867-66.133c-9.033-2.694-14.174-12.198-11.479-21.231 2.208-7.407 9.001-12.181 16.356-12.183v-53.342h-221.869c-7.345 0-13.867-4.7-16.19-11.669l-51.2-153.6c-1.734-5.205-0.862-10.927 2.347-15.377 3.206-4.45 8.356-7.087 13.843-7.087v-409.6c-9.425 0-17.067-7.642-17.067-17.067s7.642-17.067 17.067-17.067h989.867c9.425 0 17.067 7.642 17.067 17.067s-7.639 17.067-17.067 17.067zM972.8 89.6h-238.933v409.6h238.933v-409.6zM324.267 192h68.267v-102.4h-68.267v102.4zM426.667 192h170.667v-102.4h-170.667v102.4zM631.467 192h68.267v-102.4h-68.267v102.4zM943.433 652.8l39.823-119.467h-249.389v119.467h209.566zM512 805.658l187.733-55.959v-523.565h-375.467v523.565l187.733 55.959zM80.567 652.8h209.566v-119.467h-249.387l39.821 119.467zM51.2 499.2h238.933v-409.6h-238.933v409.6zM238.933 618.667c-9.425 0-17.067-7.642-17.067-17.067v-34.133c0-9.425 7.642-17.067 17.067-17.067s17.067 7.642 17.067 17.067v34.133c0 9.425-7.639 17.067-17.067 17.067zM170.667 618.667c-9.425 0-17.067-7.642-17.067-17.067v-34.133c0-9.425 7.642-17.067 17.067-17.067s17.067 7.642 17.067 17.067v34.133c0 9.425-7.639 17.067-17.067 17.067zM102.4 618.667c-9.425 0-17.067-7.642-17.067-17.067v-34.133c0-9.425 7.642-17.067 17.067-17.067s17.067 7.642 17.067 17.067v34.133c0 9.425-7.639 17.067-17.067 17.067zM921.6 550.4c9.425 0 17.067 7.642 17.067 17.067v34.133c0 9.425-7.642 17.067-17.067 17.067s-17.067-7.642-17.067-17.067v-34.133c0-9.425 7.642-17.067 17.067-17.067zM853.333 550.4c9.425 0 17.067 7.642 17.067 17.067v34.133c0 9.425-7.642 17.067-17.067 17.067s-17.067-7.642-17.067-17.067v-34.133c0-9.425 7.642-17.067 17.067-17.067zM785.067 550.4c9.425 0 17.067 7.642 17.067 17.067v34.133c0 9.425-7.642 17.067-17.067 17.067s-17.067-7.642-17.067-17.067v-34.133c0-9.425 7.642-17.067 17.067-17.067zM238.933 465.067c-9.425 0-17.067-7.642-17.067-17.067v-51.2c0-9.425 7.642-17.067 17.067-17.067s17.067 7.642 17.067 17.067v51.2c0 9.425-7.639 17.067-17.067 17.067zM170.667 465.067c-9.425 0-17.067-7.642-17.067-17.067v-51.2c0-9.425 7.642-17.067 17.067-17.067s17.067 7.642 17.067 17.067v51.2c0 9.425-7.639 17.067-17.067 17.067zM102.4 465.067c-9.425 0-17.067-7.642-17.067-17.067v-51.2c0-9.425 7.642-17.067 17.067-17.067s17.067 7.642 17.067 17.067v51.2c0 9.425-7.639 17.067-17.067 17.067zM238.933 345.6c-9.425 0-17.067-7.642-17.067-17.067v-51.2c0-9.425 7.642-17.067 17.067-17.067s17.067 7.642 17.067 17.067v51.2c0 9.425-7.639 17.067-17.067 17.067zM170.667 345.6c-9.425 0-17.067-7.642-17.067-17.067v-51.2c0-9.425 7.642-17.067 17.067-17.067s17.067 7.642 17.067 17.067v51.2c0 9.425-7.639 17.067-17.067 17.067zM102.4 345.6c-9.425 0-17.067-7.642-17.067-17.067v-51.2c0-9.425 7.642-17.067 17.067-17.067s17.067 7.642 17.067 17.067v51.2c0 9.425-7.639 17.067-17.067 17.067zM238.933 226.133c-9.425 0-17.067-7.642-17.067-17.067v-51.2c0-9.425 7.642-17.067 17.067-17.067s17.067 7.642 17.067 17.067v51.2c0 9.425-7.639 17.067-17.067 17.067zM170.667 226.133c-9.425 0-17.067-7.642-17.067-17.067v-51.2c0-9.425 7.642-17.067 17.067-17.067s17.067 7.642 17.067 17.067v51.2c0 9.425-7.639 17.067-17.067 17.067zM102.4 226.133c-9.425 0-17.067-7.642-17.067-17.067v-51.2c0-9.425 7.642-17.067 17.067-17.067s17.067 7.642 17.067 17.067v51.2c0 9.425-7.639 17.067-17.067 17.067zM921.6 379.733c9.425 0 17.067 7.642 17.067 17.067v51.2c0 9.425-7.642 17.067-17.067 17.067s-17.067-7.642-17.067-17.067v-51.2c0-9.425 7.642-17.067 17.067-17.067zM853.333 379.733c9.425 0 17.067 7.642 17.067 17.067v51.2c0 9.425-7.642 17.067-17.067 17.067s-17.067-7.642-17.067-17.067v-51.2c0-9.425 7.642-17.067 17.067-17.067zM785.067 379.733c9.425 0 17.067 7.642 17.067 17.067v51.2c0 9.425-7.642 17.067-17.067 17.067s-17.067-7.642-17.067-17.067v-51.2c0-9.425 7.642-17.067 17.067-17.067zM921.6 260.267c9.425 0 17.067 7.642 17.067 17.067v51.2c0 9.425-7.642 17.067-17.067 17.067s-17.067-7.642-17.067-17.067v-51.2c0-9.425 7.642-17.067 17.067-17.067zM853.333 260.267c9.425 0 17.067 7.642 17.067 17.067v51.2c0 9.425-7.642 17.067-17.067 17.067s-17.067-7.642-17.067-17.067v-51.2c0-9.425 7.642-17.067 17.067-17.067zM785.067 260.267c9.425 0 17.067 7.642 17.067 17.067v51.2c0 9.425-7.642 17.067-17.067 17.067s-17.067-7.642-17.067-17.067v-51.2c0-9.425 7.642-17.067 17.067-17.067zM921.6 140.8c9.425 0 17.067 7.642 17.067 17.067v51.2c0 9.425-7.642 17.067-17.067 17.067s-17.067-7.642-17.067-17.067v-51.2c0-9.425 7.642-17.067 17.067-17.067zM853.333 140.8c9.425 0 17.067 7.642 17.067 17.067v51.2c0 9.425-7.642 17.067-17.067 17.067s-17.067-7.642-17.067-17.067v-51.2c0-9.425 7.642-17.067 17.067-17.067zM785.067 140.8c9.425 0 17.067 7.642 17.067 17.067v51.2c0 9.425-7.642 17.067-17.067 17.067s-17.067-7.642-17.067-17.067v-51.2c0-9.425 7.642-17.067 17.067-17.067zM580.267 379.733c9.425 0 17.067 7.642 17.067 17.067v51.2c0 9.425-7.642 17.067-17.067 17.067s-17.067-7.642-17.067-17.067v-51.2c0-9.425 7.642-17.067 17.067-17.067zM512 379.733c9.425 0 17.067 7.642 17.067 17.067v51.2c0 9.425-7.642 17.067-17.067 17.067s-17.067-7.642-17.067-17.067v-51.2c0-9.425 7.642-17.067 17.067-17.067zM443.733 379.733c9.425 0 17.067 7.642 17.067 17.067v51.2c0 9.425-7.642 17.067-17.067 17.067s-17.067-7.642-17.067-17.067v-51.2c0-9.425 7.642-17.067 17.067-17.067zM580.267 260.267c9.425 0 17.067 7.642 17.067 17.067v51.2c0 9.425-7.642 17.067-17.067 17.067s-17.067-7.642-17.067-17.067v-51.2c0-9.425 7.642-17.067 17.067-17.067zM512 260.267c9.425 0 17.067 7.642 17.067 17.067v51.2c0 9.425-7.642 17.067-17.067 17.067s-17.067-7.642-17.067-17.067v-51.2c0-9.425 7.642-17.067 17.067-17.067zM443.733 260.267c9.425 0 17.067 7.642 17.067 17.067v51.2c0 9.425-7.642 17.067-17.067 17.067s-17.067-7.642-17.067-17.067v-51.2c0-9.425 7.642-17.067 17.067-17.067zM375.467 379.733c9.425 0 17.067 7.642 17.067 17.067v51.2c0 9.425-7.642 17.067-17.067 17.067s-17.067-7.642-17.067-17.067v-51.2c0-9.425 7.642-17.067 17.067-17.067zM375.467 260.267c9.425 0 17.067 7.642 17.067 17.067v51.2c0 9.425-7.642 17.067-17.067 17.067s-17.067-7.642-17.067-17.067v-51.2c0-9.425 7.642-17.067 17.067-17.067zM648.533 379.733c9.425 0 17.067 7.642 17.067 17.067v51.2c0 9.425-7.642 17.067-17.067 17.067s-17.067-7.642-17.067-17.067v-51.2c0-9.425 7.642-17.067 17.067-17.067zM580.267 499.2c9.425 0 17.067 7.642 17.067 17.067v51.2c0 9.425-7.642 17.067-17.067 17.067s-17.067-7.642-17.067-17.067v-51.2c0-9.425 7.642-17.067 17.067-17.067zM512 499.2c9.425 0 17.067 7.642 17.067 17.067v51.2c0 9.425-7.642 17.067-17.067 17.067s-17.067-7.642-17.067-17.067v-51.2c0-9.425 7.642-17.067 17.067-17.067zM443.733 499.2c9.425 0 17.067 7.642 17.067 17.067v51.2c0 9.425-7.642 17.067-17.067 17.067s-17.067-7.642-17.067-17.067v-51.2c0-9.425 7.642-17.067 17.067-17.067zM375.467 499.2c9.425 0 17.067 7.642 17.067 17.067v51.2c0 9.425-7.642 17.067-17.067 17.067s-17.067-7.642-17.067-17.067v-51.2c0-9.425 7.642-17.067 17.067-17.067zM648.533 499.2c9.425 0 17.067 7.642 17.067 17.067v51.2c0 9.425-7.642 17.067-17.067 17.067s-17.067-7.642-17.067-17.067v-51.2c0-9.425 7.642-17.067 17.067-17.067zM580.267 618.667c9.425 0 17.067 7.642 17.067 17.067v51.2c0 9.425-7.642 17.067-17.067 17.067s-17.067-7.642-17.067-17.067v-51.2c0-9.425 7.642-17.067 17.067-17.067zM512 618.667c9.425 0 17.067 7.642 17.067 17.067v51.2c0 9.425-7.642 17.067-17.067 17.067s-17.067-7.642-17.067-17.067v-51.2c0-9.425 7.642-17.067 17.067-17.067zM443.733 618.667c9.425 0 17.067 7.642 17.067 17.067v51.2c0 9.425-7.642 17.067-17.067 17.067s-17.067-7.642-17.067-17.067v-51.2c0-9.425 7.642-17.067 17.067-17.067zM375.467 618.667c9.425 0 17.067 7.642 17.067 17.067v51.2c0 9.425-7.642 17.067-17.067 17.067s-17.067-7.642-17.067-17.067v-51.2c0-9.425 7.642-17.067 17.067-17.067zM648.533 618.667c9.425 0 17.067 7.642 17.067 17.067v51.2c0 9.425-7.642 17.067-17.067 17.067s-17.067-7.642-17.067-17.067v-51.2c0-9.425 7.642-17.067 17.067-17.067zM648.533 260.267c9.425 0 17.067 7.642 17.067 17.067v51.2c0 9.425-7.642 17.067-17.067 17.067s-17.067-7.642-17.067-17.067v-51.2c0-9.425 7.642-17.067 17.067-17.067z" />
<glyph unicode="&#xe902;" glyph-name="wpicon_set_-5" d="M768 857.6v102.4h-512v-102.4h-153.6v-921.6h307.2v102.4h204.8v-102.4h307.2v921.6h-153.6zM460.8 192h-102.4v102.4h102.4v-102.4zM460.8 396.8h-102.4v102.4h102.4v-102.4zM460.8 601.6h-102.4v102.4h102.4v-102.4zM665.6 192h-102.4v102.4h102.4v-102.4zM665.6 396.8h-102.4v102.4h102.4v-102.4zM665.6 601.6h-102.4v102.4h102.4v-102.4z" />
<glyph unicode="&#xe903;" d="M1024 448c0-282.77-229.23-512-512-512s-512 229.23-512 512c0 282.77 229.23 512 512 512s512-229.23 512-512z" />
<glyph unicode="&#xe904;" d="M633.746-49.396c200.576 48.928 354.834 215.982 384.896 423.292l-304.594 304.594-33.216-39.146-162.288 163.298-8.844-48.932v-21.776l106.648-106.644-58.068-182.93-195.912 195.908-6.672 2.242-5.52-14.43 202.224-202.224-47.284-148.952-206.014 206.016-18.538-3.752-51.844-6.736 257.686-254.482-3.172-9.996-120.866 120.866-14.418-15.87 0.158-0.158-38.154-36.388 323.792-323.8z" />
<glyph unicode="&#xe905;" d="M682.666 504.888c0 96.532-80.144 174.346-177.524 170.532-87.25-3.416-158.714-73.642-163.54-160.826-3.316-59.882 24.266-113.498 68.252-146.404 28.076-21.004 45.256-53.468 45.256-88.532v-59.212c0-31.42 25.468-56.888 56.888-56.888v0c31.42 0 56.888 25.468 56.888 56.888v58.264c0 35.54 17.356 68.456 45.738 89.844 41.326 31.136 68.042 80.608 68.042 136.334z" />
<glyph unicode="&#xe906;" d="M512 675.51v-511.956c31.42 0 56.888 25.468 56.888 56.888v58.264c0 35.54 17.356 68.456 45.738 89.844 41.322 31.138 68.040 80.61 68.040 136.336 0 94.256-76.414 170.622-170.666 170.624z" />
<glyph unicode="&#xe907;" d="M455.112 277.334v-56.888c0-31.42 25.468-56.888 56.888-56.888v0c31.42 0 56.888 25.468 56.888 56.888v56.892l-113.776-0.004z" />
<glyph unicode="&#xe908;" d="M512 277.336v-113.782c31.42 0 56.888 25.468 56.888 56.888v56.892h-56.888z" />
<glyph unicode="&#xe909;" d="M512 731.582c-4.762 0-8.62 3.858-8.62 8.62v56.888c0 4.762 3.858 8.62 8.62 8.62s8.62-3.858 8.62-8.62v-56.888c0-4.762-3.858-8.62-8.62-8.62z" />
<glyph unicode="&#xe90a;" d="M512 805.71v-74.128c4.762 0 8.62 3.858 8.62 8.62v56.888c0 4.762-3.858 8.62-8.62 8.62z" />
<glyph unicode="&#xe90b;" d="M789.118 467.824h-56.888c-4.762 0-8.62 3.858-8.62 8.62s3.858 8.62 8.62 8.62h56.888c4.762 0 8.62-3.858 8.62-8.62s-3.858-8.62-8.62-8.62z" />
<glyph unicode="&#xe90c;" d="M291.772 467.824h-56.888c-4.762 0-8.62 3.858-8.62 8.62s3.858 8.62 8.62 8.62h56.888c4.762 0 8.62-3.858 8.62-8.62s-3.86-8.62-8.62-8.62z" />
<glyph unicode="&#xe90d;" d="M707.952 271.872c-2.206 0-4.41 0.842-6.096 2.524l-40.226 40.23c-3.368 3.368-3.368 8.826 0 12.188 3.368 3.368 8.822 3.368 12.188 0l40.226-40.23c3.368-3.368 3.368-8.826 0-12.188-1.682-1.682-3.884-2.524-6.092-2.524z" />
<glyph unicode="&#xe90e;" d="M356.276 623.548c-2.206 0-4.41 0.842-6.096 2.524l-40.226 40.226c-3.368 3.368-3.368 8.822 0 12.188s8.822 3.368 12.188 0l40.226-40.226c3.368-3.368 3.368-8.822 0-12.188-1.682-1.682-3.886-2.524-6.092-2.524z" />
<glyph unicode="&#xe90f;" d="M667.724 623.548c-2.206 0-4.41 0.842-6.096 2.524-3.368 3.368-3.368 8.822 0 12.188l40.23 40.23c3.368 3.368 8.822 3.368 12.188 0s3.368-8.822 0-12.188l-40.23-40.23c-1.682-1.682-3.886-2.524-6.092-2.524z" />
<glyph unicode="&#xe910;" d="M316.048 271.872c-2.206 0-4.41 0.842-6.096 2.524-3.368 3.368-3.368 8.826 0 12.188l40.23 40.226c3.368 3.368 8.822 3.368 12.188 0s3.368-8.826 0-12.188l-40.23-40.226c-1.684-1.682-3.886-2.524-6.092-2.524z" />
<glyph unicode="&#xe911;" d="M479.232 399.73c-3.176 0-6.382 0.968-9.14 2.99-6.92 5.054-8.426 14.76-3.372 21.68l47.48 64.974h-34.954c-5.84 0-11.188 3.282-13.836 8.492-2.644 5.21-2.138 11.46 1.31 16.178l65.508 89.644c5.052 6.92 14.756 8.436 21.68 3.372 6.92-5.054 8.426-14.76 3.372-21.68l-47.48-64.974h34.954c5.84 0 11.188-3.282 13.836-8.492 2.644-5.21 2.138-11.46-1.31-16.178l-65.508-89.644c-3.038-4.158-7.754-6.362-12.54-6.362z" />
<glyph unicode="&#xe912;" d="M557.28 585.378c5.058 6.92 3.548 16.626-3.372 21.68-6.924 5.068-16.628 3.548-21.68-3.372l-20.228-27.68v-52.592l45.28 61.964z" />
<glyph unicode="&#xe913;" d="M544.754 520.404h-32.754v-31.030h2.196l-2.196-3.006v-52.592l45.28 61.96c3.448 4.716 3.952 10.97 1.31 16.178-2.648 5.208-7.996 8.49-13.836 8.49z" />
<glyph unicode="&#xe914;" glyph-name="wpicon_set_-7" d="M938.671 601.603h-853.342c-9.42 0-17.066-7.646-17.066-17.066v-580.272c0-9.438 7.646-17.066 17.066-17.066h853.342c9.438 0 17.066 7.628 17.066 17.066v580.272c0 9.42-7.628 17.066-17.066 17.066zM921.603 21.331h-819.208v546.137h819.208v-546.137zM1023.22 350.686l-170.668 546.139c-2.816 8.994-12.424 14.012-21.368 11.196l-819.208-256.003c-8.84-2.764-13.858-12.066-11.316-20.974l68.267-238.936 32.82 9.37-63.693 222.926 787.020 245.948 160.19-512.603-50.722-12.68 8.26-33.092 68.267 17.084c4.574 1.126 8.448 4.096 10.752 8.192s2.8 8.944 1.4 13.432zM798.176 322.424c-2.986 3.55-7.27 5.734-11.896 6.076-4.642 0.426-9.182-1.212-12.63-4.334l-157.424-141.671-227.586 276.361c-3.072 3.704-7.544 5.956-12.356 6.196-4.846 0.086-9.49-1.57-12.886-4.984l-221.868-221.868 24.132-24.132 208.59 208.556 226.988-275.613c2.952-3.602 7.254-5.802 11.896-6.162 0.41-0.034 0.854-0.052 1.262-0.052 4.198 0 8.278 1.554 11.4 4.404l157.494 141.739 73.985-88.781 26.232 21.862-85.333 102.403zM614.4 465.067c-47.052 0-85.335-38.28-85.335-85.335 0-47.052 38.28-85.335 85.335-85.335 47.052 0 85.335 38.28 85.335 85.335s-38.28 85.335-85.335 85.335zM614.4 328.534c-28.228 0-51.201 22.972-51.201 51.201s22.972 51.201 51.201 51.201c28.246 0 51.201-22.972 51.201-51.201s-22.97-51.201-51.201-51.201zM870.403 533.336h-716.807c-9.42 0-17.066-7.646-17.066-17.066v-443.738c0-9.438 7.646-17.066 17.066-17.066h716.807c9.438 0 17.066 7.628 17.066 17.066v443.736c0.002 9.422-7.628 17.068-17.066 17.068zM853.336 89.597h-682.673v409.604h682.673v-409.604zM801.248 794.73c-2.918 8.772-12.306 13.704-21.196 10.906l-665.607-204.802 10.036-32.614 649.682 199.886 62.995-188.982 32.358 10.804-68.269 204.802zM761.193 657.907c-11.384 8.55-25.822 12.818-40.174 11.776-19.848 30.106-58.967 42.888-93.459 28.552-16.298-6.792-29.458-18.79-37.7-33.81-25.378 10.786-55.929 5.394-76.085-15.684-17.852-18.722-23.586-45.516-14.968-69.907l32.17 11.384c-4.3 12.186-1.434 25.582 7.476 34.936 13.056 13.62 34.662 14.114 48.282 1.126 4.54-4.334 11.060-5.836 16.998-3.908 5.956 1.912 10.394 6.93 11.554 13.074 2.662 14.080 12.168 25.77 25.396 31.284 10.496 4.352 22.050 4.352 32.512 0.068 10.514-4.318 18.688-12.476 23.058-22.954 3.498-8.43 13.056-12.646 21.64-9.454 7.662 2.834 16.402 1.024 22.784-3.772 11.298-8.464 13.602-24.542 5.136-35.84l27.306-20.48c19.764 26.348 14.406 63.861-11.928 83.609z" />
<glyph unicode="&#xe915;" glyph-name="wpicon_set_-8" d="M689.55 797.181c-13.95 14.438-37.168 14.438-51.606 0-13.95-13.95-13.95-37.168 0-51.086l261.674-261.674h-863.49c-20.129-0.033-36.128-16.032-36.128-36.16s15.999-36.648 36.128-36.648h863.49l-261.674-261.187c-13.95-14.438-13.95-37.689 0-51.606 14.438-14.438 37.689-14.438 51.606 0l323.622 323.622c14.438 13.95 14.438 37.168 0 51.086l-323.622 323.654z" />
<glyph unicode="&#xe916;" glyph-name="wpicon_set_-9" d="M1017.841-29.204l-241.48 241.48c74.895 82.052 116.364 189.168 116.261 300.259 0 246.227-200.351 446.311-446.311 446.311s-446.311-200.351-446.311-446.311c0-246.217 200.351-446.311 446.311-446.311 111.091-0.103 218.207 41.366 300.259 116.261l241.48-241.48c3.975-3.975 9.402-6.168 15.024-6.055 5.602 0.010 10.977 2.183 15.024 6.055 7.97 8.382 7.847 21.563-0.257 29.791zM41.911 512.535c0 222.759 181.373 404.132 404.132 404.132s404.132-181.373 404.132-404.132-181.373-404.132-404.132-404.132-404.132 181.373-404.132 404.132z" />
<glyph unicode="&#xe917;" glyph-name="wpicon_set_-10" d="M932.902 861.252c-14.13 16.616-34.736 26.142-56.534 26.142h-71.546v22.38c0 27.694-22.534 50.226-50.226 50.226h-485.185c-27.696 0-50.224-22.532-50.224-50.224v-22.38h-71.554c-21.798 0-42.406-9.528-56.534-26.142-13.984-16.442-20.028-38.038-16.578-59.248 18.8-115.6 91.55-217.726 194.8-273.745 9.434-22.682 20.118-44.166 32.016-64.182 38.004-63.95 85.25-108.146 137.254-129.52 5.27-53.288-30.188-103.77-83.588-115.8-0.114-0.026-0.194-0.066-0.306-0.092-10.422-2.49-18.18-11.842-18.18-23.026v-108.726h-43.972c-39.204 0-71.098-31.894-71.098-71.098v-56.116c0-13.090 10.61-23.7 23.7-23.7h535.975c13.090 0 23.7 10.61 23.7 23.7v56.116c0 39.204-31.894 71.098-71.098 71.098h-43.976v108.724c0 11.206-7.786 20.572-18.236 23.040-0.098 0.024-0.192 0.056-0.29 0.080-53.804 12.11-89.328 63.1-83.504 116.788 51.096 21.72 97.514 65.522 134.958 128.528 11.898 20.018 22.58 41.504 32.016 64.19 103.244 56.020 175.99 158.144 194.79 273.741 3.45 21.21-2.594 42.804-16.58 59.246zM121.304 809.616c-1.232 7.574 0.862 15.008 5.898 20.932 5.11 6.008 12.554 9.452 20.428 9.452h71.554v-43.604c0-68.372 8.726-134.6 25.264-195.166-64.992 51.358-109.74 125.964-123.144 208.386zM733.723 39.512c13.068 0 23.7-10.632 23.7-23.7v-32.416h-488.579v32.416c0 13.068 10.632 23.7 23.7 23.7h441.179zM642.347 171.938v-85.026h-258.427v85.026h258.427zM446.075 219.337c5.858 6.448 11.214 13.438 16.004 20.92 15.794 24.678 24.084 52.714 24.456 81.348 8.418-1.146 16.914-1.76 25.482-1.76 9.322 0 18.558 0.716 27.704 2.072 0.54-38.478 15.516-74.9 40.698-102.578h-134.344zM757.419 796.394c0-116.758-26.812-226.178-75.494-308.099-46.384-78.060-106.728-121.050-169.912-121.050-63.194 0-123.542 42.988-169.932 121.046-48.684 81.922-75.496 191.342-75.496 308.099v113.386c0 1.56 1.268 2.826 2.824 2.826h485.183c1.56 0 2.828-1.268 2.828-2.826v-113.382zM902.698 809.616c-13.404-82.416-58.148-157.020-123.138-208.382 16.536 60.566 25.262 126.79 25.262 195.16v43.604h71.546c7.876 0 15.32-3.446 20.428-9.452 5.036-5.922 7.132-13.356 5.902-20.93zM655.883 716.684c-2.79 8.576-10.206 14.828-19.132 16.128l-71.516 10.392-31.982 64.804c-3.994 8.088-12.232 13.21-21.252 13.21-9.022 0-17.26-5.122-21.252-13.21l-31.982-64.804-71.516-10.392c-8.928-1.296-16.344-7.55-19.132-16.13-2.786-8.582-0.462-17.998 5.998-24.296l51.75-50.442-12.218-71.226c-1.526-8.892 2.128-17.876 9.428-23.18 7.296-5.302 16.974-6 24.958-1.804l63.966 33.626 63.964-33.626c3.468-1.822 7.254-2.72 11.024-2.72 4.912 0 9.804 1.526 13.932 4.526 7.3 5.304 10.954 14.288 9.428 23.18l-12.218 71.226 51.75 50.442c6.464 6.296 8.788 15.714 6.002 24.296zM556.129 667.189c-5.586-5.444-8.136-13.288-6.816-20.978l6.204-36.18-32.49 17.082c-3.45 1.816-7.24 2.72-11.028 2.72s-7.576-0.908-11.028-2.72l-32.49-17.082 6.204 36.18c1.32 7.688-1.23 15.532-6.816 20.978l-26.282 25.62 36.324 5.28c7.718 1.12 14.392 5.97 17.844 12.964l16.246 32.916 16.244-32.916c3.454-6.994 10.124-11.842 17.844-12.964l36.324-5.28-26.284-25.62z" />
<glyph unicode="&#xe918;" glyph-name="wpicon_set_-11" d="M913.656 77.242h-215.264c54.84 21.904 96.776 53.064 128.748 90.8 130.462 19.806 188.916 127.692 188.916 226.992 0 70.492-39.254 129.348-90.056 139.64 0.004 0.534 0.010 1.068 0.014 1.6 0 8.828-3.532 17.656-10.594 24.718s-15.89 10.594-24.718 10.594h-812.136c-8.828 0-17.656-3.532-24.718-10.594s-10.594-15.89-10.594-24.718c1.366-189.88 34.442-381.872 227.622-459.034h-217.028c-24.718 0-45.904-19.42-45.904-45.904 0-21.186 14.124-37.076 38.842-42.372l224.22-15.89c5.296 0 10.594-3.532 12.358-8.828 8.828-17.656 26.482-28.248 45.904-28.248h293.076c19.42 0 37.076 10.594 44.138 28.248 1.766 5.296 7.062 8.828 12.358 8.828l241.876 15.89c24.718 5.296 38.842 21.186 38.842 42.372 0 24.72-19.42 45.906-45.902 45.906zM926.014 497.434c30.014-10.594 52.966-52.966 52.966-102.4 0-68.8-31.734-151.7-119.85-181.774 1.476 2.506 2.92 5.032 4.334 7.578 49.034 85.054 59.122 187.478 62.55 276.596zM78.566 536.276h812.138c-1.766-238.344-52.966-459.034-406.068-459.034s-404.304 220.69-406.070 459.034zM917.186 24.276l-236.58-15.89c-17.656-1.766-33.544-12.358-42.372-28.248-3.532-5.296-8.828-8.828-14.124-8.828h-294.84c-5.296 0-10.594 3.532-14.124 8.828-8.828 15.89-24.718 26.482-42.372 28.248l-220.69 15.89c-8.828 1.766-8.828 5.296-8.828 7.062 0 5.296 5.296 10.594 10.594 10.594h861.57c5.296 0 10.594-5.296 10.594-10.594 0-1.766 0-5.296-8.828-7.062zM472.276 813.462c-26.482-26.482-40.606-52.966-40.606-81.214s14.124-56.496 40.606-84.744c3.532-3.532 7.062-5.296 12.358-5.296s8.828 1.766 12.358 5.296c7.062 7.062 7.062 17.656 0 24.718-19.42 21.186-30.014 40.606-30.014 60.028s10.594 38.842 30.014 56.496c26.484 24.716 40.608 52.964 40.608 81.212s-12.358 58.262-40.606 84.744c-7.062 7.062-17.656 7.062-24.718 0s-7.062-17.656 0-24.718c19.42-21.186 30.014-40.606 30.014-60.028s-10.594-38.838-30.014-56.494zM625.876 732.248c0-28.248 14.124-56.496 40.606-84.744 3.532-3.532 7.062-5.296 12.358-5.296 3.532 0 8.828 1.766 10.594 5.296 7.062 7.062 7.062 17.656 0 24.718-19.42 21.186-30.014 40.606-30.014 60.028s10.594 38.842 30.014 56.496c28.248 24.718 42.372 52.966 42.372 81.214 0 30.014-12.358 58.262-40.606 84.744-7.062 7.062-17.656 7.062-24.718 0s-7.062-17.656 0-24.718c19.42-21.186 30.014-40.606 30.014-60.028s-10.594-37.076-30.014-56.496c-26.482-26.482-40.606-52.966-40.606-81.214zM255.118 732.248c0-28.248 14.124-56.496 40.606-84.744 3.532-3.532 7.062-5.296 12.358-5.296 3.532 0 8.828 1.766 10.594 5.296 7.062 7.062 7.062 17.656 0 24.718-19.42 21.186-30.014 40.606-30.014 60.028s10.594 38.842 30.014 56.496c28.248 24.718 42.372 52.966 42.372 81.214 0 30.014-12.358 58.262-40.606 84.744-7.062 7.062-17.656 7.062-24.718 0s-7.062-17.656 0-24.718c19.42-21.186 30.014-40.606 30.014-60.028s-10.594-37.076-30.014-56.496c-26.482-26.482-40.606-52.966-40.606-81.214zM382.234 165.518c-125.352 21.186-188.91 91.806-215.394 233.048-1.766 8.828-12.358 15.89-21.186 14.124s-15.89-12.358-14.124-21.186c28.248-157.13 104.166-236.58 243.642-261.296 1.766 0 1.766 0 3.532 0 8.828 0 15.89 5.296 17.656 14.124 1.764 10.592-5.298 19.42-14.126 21.186z" />
<glyph unicode="&#xe919;" glyph-name="wpicon_set_-12" d="M334.018 797.137c14.436 14.436 37.164 14.436 51.6 0 13.949-13.949 13.949-37.164 0-51.080l-261.641-261.641h863.38c20.126 0 36.643-15.997 36.643-36.123s-16.517-36.643-36.643-36.643h-863.38l261.641-261.153c13.949-14.436 13.949-37.684 0-51.6-14.436-14.436-37.164-14.436-51.6 0l-323.581 323.581c-13.949 13.949-13.949 37.164 0 51.080l323.581 323.581z" />
<glyph unicode="&#xe91a;" glyph-name="wpicon_set_-13" d="M639.987 832.002c0-70.691-57.307-127.998-127.998-127.998s-127.998 57.307-127.998 127.998c0 70.691 57.307 127.998 127.998 127.998s127.998-57.307 127.998-127.998zM760.769 28.598l-157.63-59.116 78.388-29.396c33.736-12.526 70.136 4.83 82.404 37.466 6.53 17.414 4.598 35.652-3.162 51.046zM214.476 251.953c-33.030 12.25-69.968-4.376-82.404-37.466-12.406-33.094 4.376-69.968 37.466-82.404l69.046-25.89 182.286 68.366-206.394 77.394zM891.926 214.485c-12.438 33.094-49.374 49.718-82.404 37.466l-511.989-191.996c-33.094-12.438-49.874-49.31-37.468-82.404 12.266-32.626 48.658-49.996 82.404-37.466l511.989 191.996c33.096 12.436 49.876 49.31 37.468 82.404zM959.99 448.011h-152.434l-110.31 220.62c-11.464 22.906-34.784 35.956-58.818 35.374h-252.866c-24.030 0.582-47.32-12.47-58.81-35.374l-110.31-220.62h-152.434c-35.342 0-63.998-28.656-63.998-63.998s28.656-63.998 63.998-63.998h191.996c24.25 0 46.406 13.688 57.248 35.374l70.748 141.496v-240.16l127.994-47.994 128.002 48.008v240.146l70.748-141.496c10.844-21.688 33-35.374 57.248-35.374h191.996c35.342 0 63.998 28.656 63.998 63.998s-28.654 63.998-63.996 63.998z" />
<glyph unicode="&#xe91b;" glyph-name="wpicon_set_-14" d="M578.88 913.724c-8.936 20.994-26.536 36.94-49.082 43.95-32.984 8.612-67.741-7.282-82.851-37.724-24.678-49.578-37.57-105.091-37.264-160.4v-533.639c0-1.074 0.102-2.148 0.308-3.224l45.91-237.878c3.872-27.85 27.986-48.81 56.059-48.81 0.018 0 0.052 0 0.086 0 28.106 0 52.205 20.976 55.923 47.922l46.046 238.764c0.222 1.058 0.324 2.148 0.324 3.224v533.675c-0.12 53.363-12.502 106.931-35.458 154.14zM580.228 227.565l-45.876-238.048c-1.534-11.068-11.136-19.408-22.358-19.408-11.204 0-20.79 8.34-22.444 20.278l-45.74 237.162v532.085c-0.272 50.088 11.376 100.281 33.7 145.135 7.982 16.066 26.4 24.44 42.908 20.124 12.194-3.804 22.086-12.74 27.424-25.274 21.080-43.404 32.266-91.839 32.386-140.069v-531.985zM435.468 581.67c-5.168 3.086-11.598 3.206-16.85 0.342l-409.31-221.712c-5.508-2.984-8.936-8.732-8.936-14.99v-102.327c0-5.594 2.728-10.812 7.334-14.018 2.9-1.996 6.294-3.036 9.722-3.036 2.012 0 4.042 0.342 5.986 1.074l409.31 153.491c6.652 2.506 11.068 8.868 11.068 15.98v170.546c-0.002 6.002-3.156 11.562-8.324 14.65zM409.682 408.293l-375.202-140.701v67.553l375.202 203.222v-130.073zM1014.71 360.3l-409.31 221.71c-5.286 2.848-11.682 2.746-16.85-0.342-5.15-3.070-8.322-8.63-8.322-14.65v-170.546c0-7.112 4.4-13.49 11.052-15.98l409.31-153.491c1.962-0.716 3.99-1.074 6.004-1.074 3.428 0 6.822 1.024 9.686 3.036 4.604 3.19 7.35 8.424 7.35 14.018v102.327c0 6.26-3.428 12.008-8.92 14.992zM989.538 267.591l-375.202 140.701v130.093l375.202-203.24v-67.555zM273.245 567.002c-28.208 0-51.164-22.956-51.164-51.164v-51.164h34.108v51.164c0 9.398 7.658 17.054 17.054 17.054s17.054-7.658 17.054-17.054v-17.054h34.108v17.054c0.004 28.21-22.952 51.164-51.16 51.164zM119.753 481.747c-28.208 0-51.164-22.956-51.164-51.164v-51.164h34.108v51.164c0 9.396 7.658 17.038 17.054 17.038s17.054-7.64 17.054-17.038h34.108c0.004 28.208-22.952 51.164-51.16 51.164zM750.773 567.002c-28.208 0-51.164-22.956-51.164-51.164v-17.054h34.108v17.054c0 9.398 7.64 17.054 17.054 17.054s17.054-7.658 17.054-17.054v-51.164h34.108v51.164c0.004 28.21-22.952 51.164-51.16 51.164zM904.265 481.747c-28.208 0-51.164-22.956-51.164-51.164h34.108c0 9.396 7.64 17.038 17.054 17.038s17.054-7.64 17.054-17.038v-51.164h34.108v51.164c0.004 28.208-22.952 51.164-51.16 51.164zM475.069 3.979l-184.786-30.8v38.424l162.276 97.365-17.55 29.248-170.546-102.327c-5.134-3.070-8.272-8.612-8.272-14.616v-68.219c0-5.014 2.218-9.79 6.038-13.012 3.104-2.626 7.010-4.042 11.018-4.042 0.92 0 1.858 0.086 2.78 0.222l204.656 34.108-5.614 33.648zM759.539 35.889l-170.546 102.327-17.548-29.248 162.276-97.365v-38.406l-184.804 30.8-5.594-33.648 204.656-34.108c0.938-0.154 1.858-0.238 2.796-0.238 4.008 0 7.914 1.416 11 4.042 3.838 3.24 6.038 7.998 6.038 13.012v68.219c-0.002 5.984-3.14 11.526-8.274 14.614zM550.671 829.099c-5.576 16.696-21.488 27.424-38.85 27.85-18.094-0.17-33.648-11.956-38.492-28.618l-11.598-34.108 32.302-10.984 11.818 34.826c0.836 2.83 3.36 4.758 6.174 4.776 2.866 0 5.39-1.824 6.294-4.502l11.598-34.962 32.37 10.728-11.616 34.994z" />
<glyph unicode="&#xe91c;" glyph-name="wpicon_set_-15" d="M1007.66 910.979h-991.319c-9.024 0-16.34-7.314-16.34-16.34v-893.277c0-9.026 7.316-16.34 16.34-16.34h991.319c9.024 0 16.34 7.314 16.34 16.34v174.298c0 9.026-7.316 16.34-16.34 16.34s-16.34-7.314-16.34-16.34v-157.957h-958.638v729.872h958.638v-506.553c0-9.026 7.316-16.34 16.34-16.34s16.34 7.314 16.34 16.34v653.617c0 9.026-7.316 16.34-16.34 16.34zM32.681 878.298h604.596v-98.043h-604.596v98.043zM669.957 780.255v98.043h321.362v-98.043h-321.362zM831.183 846.706c-9.61 0-17.43-7.819-17.43-17.43s7.819-17.43 17.43-17.43 17.43 7.819 17.43 17.43-7.819 17.43-17.43 17.43zM741.855 846.706c-9.61 0-17.43-7.819-17.43-17.43s7.819-17.43 17.43-17.43 17.43 7.819 17.43 17.43-7.819 17.43-17.43 17.43zM920.511 846.706c-9.61 0-17.43-7.819-17.43-17.43s7.819-17.43 17.43-17.43 17.43 7.819 17.43 17.43-7.819 17.43-17.43 17.43zM692.562 517.752c-7.227-5.403-8.704-15.645-3.299-22.872 5.405-7.229 15.645-8.704 22.872-3.299 58.989 44.119 92.82 111.616 92.82 185.185 0 9.026-7.316 16.34-16.34 16.34h-424.971c-0.137-0.002-0.27 0.004-0.407 0h-127.85c-9.024 0-16.34-7.314-16.34-16.34 0-99.947 64.963-188.854 159.188-219.687 12.73-56.405 60.27-99.014 117.427-105.923v-84.694h-118.573c-9.024 0-16.34-7.314-16.34-16.34v-161.611c0-9.026 7.316-16.34 16.34-16.34h269.826c9.024 0 16.34 7.314 16.34 16.34v161.609c0 9.026-7.316 16.34-16.34 16.34h-118.575v84.694c60.926 7.364 110.949 55.287 119.503 117.246l26.528 192.026h97.249c-4.562-56.747-32.805-108.078-79.059-142.674zM630.573 104.851h-237.145v128.928h237.145v-128.928zM252.403 660.426h97.228l22.977-166.335c-67.318 28.628-114.113 92.907-120.205 166.335zM615.47 472.872c-7.087-51.339-51.57-90.055-103.47-90.055s-96.382 38.716-103.47 90.055l-25.909 187.553h32.99l7.199-52.119c1.131-8.181 8.133-14.107 16.166-14.107 0.745 0 1.499 0.050 2.257 0.155 8.939 1.235 15.186 9.484 13.95 18.423l-6.582 47.647h192.778l-25.909-187.551zM445.706 561.991c-8.939-1.235-15.186-9.484-13.95-18.423l9.148-66.224c4.869-35.258 35.435-61.847 71.098-61.847 9.024 0 16.34 7.314 16.34 16.34s-7.316 16.34-16.34 16.34c-19.428 0-36.075 14.462-38.725 33.637l-9.148 66.224c-1.235 8.944-9.484 15.192-18.423 13.953zM440.651 170.213c0-9.026 7.316-16.34 16.34-16.34h110.015c9.024 0 16.34 7.314 16.34 16.34s-7.316 16.34-16.34 16.34h-110.015c-9.024 0-16.34-7.314-16.34-16.34z" />
<glyph unicode="&#xe91d;" glyph-name="wpicon_set_-16" d="M726.955 960h-429.909c-41.438 0-75.179-33.741-75.179-75.179v-873.626c0-41.455 33.741-75.196 75.179-75.196h429.892c41.455 0 75.196 33.741 75.196 75.179v873.643c0 41.438-33.741 75.179-75.179 75.179zM256 823.467h512v-648.533h-512v648.533zM297.045 925.867h429.892c22.647 0 41.062-18.415 41.062-41.045v-27.221h-512v27.221c0 22.63 18.415 41.045 41.045 41.045zM726.955-29.867h-429.909c-22.63 0-41.045 18.415-41.045 41.045v129.621h512v-129.621c0-22.63-18.415-41.045-41.045-41.045zM512 123.733c-37.649 0-68.267-30.618-68.267-68.267s30.618-68.267 68.267-68.267 68.267 30.618 68.267 68.267-30.618 68.267-68.267 68.267zM512 21.333c-18.825 0-34.133 15.309-34.133 34.133s15.309 34.133 34.133 34.133 34.133-15.309 34.133-34.133-15.309-34.133-34.133-34.133zM443.733 874.667h68.267c9.438 0 17.067 7.629 17.067 17.067s-7.629 17.067-17.067 17.067h-68.267c-9.438 0-17.067-7.629-17.067-17.067s7.629-17.067 17.067-17.067zM563.2 874.667h17.067c9.438 0 17.067 7.629 17.067 17.067s-7.629 17.067-17.067 17.067h-17.067c-9.438 0-17.067-7.629-17.067-17.067s7.629-17.067 17.067-17.067zM966.178 882.022c-6.673 6.673-17.459 6.673-24.132 0s-6.673-17.459 0-24.132c63.761-63.761 63.761-167.509 0-231.287-6.673-6.673-6.673-17.459 0-24.132 3.328-3.328 7.697-5.001 12.066-5.001s8.738 1.673 12.066 5.001c77.073 77.056 77.073 202.479 0 279.552zM894.31 843.179c-6.673 6.673-17.459 6.673-24.132 0s-6.673-17.459 0-24.132c21.111-21.111 32.734-49.237 32.734-79.172s-11.622-58.044-32.734-79.155c-6.673-6.673-6.673-17.459 0-24.132 3.328-3.328 7.697-5.001 12.066-5.001s8.738 1.673 12.066 5.001c27.563 27.546 42.735 64.239 42.735 103.287s-15.155 75.759-42.735 103.305zM81.954 857.89c6.673 6.673 6.673 17.459 0 24.132s-17.459 6.673-24.132 0c-77.073-77.073-77.073-202.479 0-279.552 3.328-3.328 7.697-5.001 12.066-5.001s8.738 1.673 12.066 5.001c6.673 6.673 6.673 17.459 0 24.132-63.778 63.761-63.778 167.509 0 231.287zM153.822 847.889c-6.673 6.673-17.459 6.673-24.132 0-27.563-27.546-42.735-64.239-42.735-103.287s15.172-75.742 42.735-103.305c3.328-3.328 7.697-5.001 12.066-5.001s8.738 1.673 12.066 5.001c6.673 6.673 6.673 17.459 0 24.132-21.111 21.111-32.734 49.237-32.734 79.172s11.605 58.044 32.734 79.155c6.656 6.656 6.656 17.459 0 24.132z" />
<glyph unicode="&#xe91e;" glyph-name="wpicon_set_-17" d="M521.357 537.576l251.847-56.052-23.626 149.629c-2.465 15.608-15.896 27.117-31.699 27.159l-70.215 0.188-11.494 142.012c-1.35 16.676-15.256 29.538-31.987 29.582l-47.793 0.129 0.222 82.367c0.067 24.484-19.729 44.388-44.215 44.454-0.042 0-0.080 0-0.122 0-24.428 0-44.266-19.771-44.332-44.215l-0.222-82.367-46.525 0.124c-16.732 0.047-30.706-12.74-32.145-29.412l-12.256-141.95-69.295 0.186c-15.801 0.042-29.296-11.394-31.843-26.989l-24.641-150.8 251.067 55.95c6.344 1.414 12.928 1.416 19.274 0.002zM191.847 156.901c18.76-7.094 36.543-16.661 52.918-28.587 38.576 28.095 84.916 43.257 133.618 43.257 48.699 0 95.042-15.165 133.618-43.257 38.576 28.095 84.916 43.257 133.618 43.257 48.699 0 95.036-15.162 133.613-43.253 16.386 11.944 34.178 21.527 52.942 28.631l61.324 169.804c3.141 8.698 2.387 18.328-2.066 26.432-4.456 8.104-12.181 13.899-21.207 15.909l-358.492 79.789-357.966-79.771c-9.024-2.011-16.75-7.807-21.203-15.912s-5.205-17.732-2.064-26.428l61.348-169.872zM1011.014 42.31c-26.219 26.219-61.080 40.659-98.159 40.659s-71.939-14.44-98.159-40.659c-9.472-9.472-22.065-14.688-35.461-14.688s-25.989 5.216-35.459 14.688c-27.064 27.062-62.614 40.593-98.161 40.593s-71.095-13.531-98.157-40.593c-9.472-9.472-22.065-14.688-35.461-14.688s-25.989 5.216-35.459 14.688c-27.064 27.062-62.614 40.593-98.161 40.593s-71.095-13.531-98.157-40.593c-9.776-9.776-22.619-14.664-35.459-14.664-12.844 0-25.683 4.888-35.461 14.664-27.062 27.062-62.611 40.593-98.159 40.593s-71.095-13.531-98.157-40.593c-17.315-17.315-17.315-45.385 0-62.698 17.313-17.313 45.383-17.315 62.698 0 9.776 9.776 22.617 14.664 35.461 14.664s25.683-4.888 35.461-14.666c27.062-27.062 62.609-40.593 98.157-40.593s71.097 13.531 98.159 40.593c9.776 9.778 22.619 14.666 35.461 14.666s25.683-4.888 35.459-14.666c26.217-26.217 61.080-40.657 98.157-40.657 37.079 0 71.939 14.44 98.159 40.659 9.776 9.776 22.619 14.664 35.461 14.664s25.683-4.888 35.459-14.666c26.217-26.217 61.080-40.657 98.157-40.657 37.079 0 71.939 14.44 98.159 40.659 9.472 9.47 22.065 14.688 35.461 14.688s25.989-5.218 35.461-14.688c17.315-17.313 45.383-17.315 62.698 0 17.317 17.313 17.317 45.385 0.002 62.698z" />
<glyph unicode="&#xe91f;" d="M943.994 464.002v-111.998c0-8.844 7.156-16 16-16s16 7.156 16 16v111.998h-32z" />
<glyph unicode="&#xe920;" d="M943.988 464.008h32v-48h-32v48z" />
<glyph unicode="&#xe921;" d="M64.006 560c-8.844 0-16-7.156-16-16v-111.998h32v111.998c-0.002 8.844-7.156 16-16 16z" />
<glyph unicode="&#xe922;" d="M48 480.008h32v-48h-32v48z" />
<glyph unicode="&#xe923;" d="M464 304.004v-80c0-102.644-88.324-185.048-192.964-175.198-91.188 8.584-159.032 88.76-159.032 180.352v202.842c0 8.836-7.164 16-16 16h-64c-8.836 0-16-7.164-16-16v-207.998c0-148.44 119.516-269.482 267.376-271.958 152.124-2.546 276.618 127.016 276.616 279.16v440.792c0 102.644 88.324 185.048 192.964 175.198 91.188-8.584 159.032-88.76 159.032-180.352v-202.842c0-8.836 7.164-16 16-16h64c8.836 0 16 7.164 16 16v207.998c0 148.44-119.516 269.482-267.376 271.958-152.124 2.546-276.618-127.016-276.618-279.16v-360.792h0.002z" />
<glyph unicode="&#xe924;" d="M725.17 895.74c-120.48-5.672-213.17-109.454-213.17-230.066v-25.674c0-8.836-7.164-16-16-16h-32v-351.996h32c8.836 0 16-7.164 16-16v-25.674c0-120.612-92.69-224.396-213.17-230.068-128.632-6.058-234.826 96.44-234.826 223.742v223.998h-32c-8.836 0-16-7.164-16-16v-207.998c0-148.438 119.516-269.482 267.376-271.956 152.126-2.546 276.62 127.016 276.62 279.16v440.792c0 102.644 88.324 185.048 192.962 175.198 91.188-8.584 159.034-88.76 159.034-180.354v-202.842c0-8.836 7.164-16 16-16h32v223.998c-0.002 127.3-106.194 229.798-234.826 223.74z" />
<glyph unicode="&#xe925;" d="M623.998 304.004h-223.996c-17.674 0-32 14.326-32 32v223.996c0 17.674 14.326 32 32 32h223.998c17.674 0 32-14.326 32-32v-223.998c-0.002-17.672-14.328-31.998-32.002-31.998z" />
<glyph unicode="&#xe926;" d="M32.022 576c-5.876 0-11.516 3.234-14.328 8.844l-16 32c-3.954 7.906-0.75 17.516 7.156 21.468 7.906 3.938 17.516 0.75 21.468-7.156l16-32c3.954-7.906 0.75-17.516-7.156-21.468-2.296-1.142-4.734-1.688-7.14-1.688z" />
<glyph unicode="&#xe927;" d="M95.988 576c-2.406 0-4.844 0.546-7.14 1.688-7.906 3.954-11.11 13.562-7.156 21.468l16 32c3.968 7.906 13.562 11.094 21.468 7.156 7.906-3.954 11.11-13.562 7.156-21.468l-16-32c-2.812-5.61-8.452-8.844-14.328-8.844z" />
<glyph unicode="&#xe928;" d="M1008.010 256.004c-5.876 0-11.516 3.234-14.328 8.844l-16 32c-3.954 7.906-0.75 17.516 7.156 21.468 7.906 3.922 17.516 0.75 21.468-7.156l16-32c3.954-7.906 0.75-17.516-7.156-21.468-2.296-1.142-4.734-1.688-7.14-1.688z" />
<glyph unicode="&#xe929;" d="M911.98 256.004c-2.406 0-4.844 0.546-7.14 1.688-7.906 3.954-11.11 13.562-7.156 21.468l16 32c3.954 7.906 13.562 11.078 21.468 7.156 7.906-3.954 11.11-13.562 7.156-21.468l-16-32c-2.812-5.61-8.452-8.844-14.328-8.844z" />
<glyph unicode="&#xe92a;" d="M528 368.002c-53.020 0-95.998 42.98-95.998 95.998v128h-32c-17.674 0-32-14.326-32-32v-223.998c0-17.674 14.326-32 32-32h223.998c17.674 0 32 14.326 32 32v32h-128z" />
<glyph unicode="&#xe92b;" d="M512 352.004c-1.984 0-4 0.36-5.938 1.14-8.204 3.282-12.204 12.594-8.922 20.796l23.234 58.060h-40.376c-5.312 0-10.266 2.64-13.25 7.032-2.968 4.39-3.578 9.984-1.61 14.906l32 80c3.282 8.234 12.672 12.218 20.796 8.922 8.204-3.282 12.204-12.594 8.922-20.796l-23.234-58.062h40.376c5.312 0 10.266-2.64 13.25-7.032 2.968-4.39 3.578-9.984 1.61-14.906l-32-80c-2.498-6.264-8.514-10.060-14.858-10.060z" />
<glyph unicode="&#xe92c;" glyph-name="wpicon_set_-19" d="M904.533 823.467h-409.6c-9.421 0-17.067-7.629-17.067-17.067s7.646-17.067 17.067-17.067h409.6c9.421 0 17.067 7.629 17.067 17.067s-7.646 17.067-17.067 17.067zM597.333 209.067c-9.421 0-17.067-7.629-17.067-17.067s7.646-17.067 17.067-17.067h136.533c9.421 0 17.067 7.629 17.067 17.067s-7.646 17.067-17.067 17.067h-136.533zM904.533 618.667h-136.533c-9.421 0-17.067-7.629-17.067-17.067s7.646-17.067 17.067-17.067h136.533c9.421 0 17.067 7.629 17.067 17.067s-7.646 17.067-17.067 17.067zM494.933 584.533h204.8c9.421 0 17.067 7.629 17.067 17.067s-7.646 17.067-17.067 17.067h-204.8c-9.421 0-17.067-7.629-17.067-17.067s7.646-17.067 17.067-17.067zM904.533 516.267h-307.2c-9.421 0-17.067-7.629-17.067-17.067s7.646-17.067 17.067-17.067h307.2c9.421 0 17.067 7.629 17.067 17.067s-7.646 17.067-17.067 17.067zM768 294.4c0 9.438-7.646 17.067-17.067 17.067h-153.6c-9.421 0-17.067-7.629-17.067-17.067s7.646-17.067 17.067-17.067h153.6c9.421 0 17.067 7.629 17.067 17.067zM494.933 686.933h136.533c9.421 0 17.067 7.629 17.067 17.067s-7.646 17.067-17.067 17.067h-136.533c-9.421 0-17.067-7.629-17.067-17.067s7.646-17.067 17.067-17.067zM904.533 721.067h-204.8c-9.421 0-17.067-7.629-17.067-17.067s7.646-17.067 17.067-17.067h204.8c9.421 0 17.067 7.629 17.067 17.067s-7.646 17.067-17.067 17.067zM904.533 379.733c9.421 0 17.067 7.629 17.067 17.067s-7.646 17.067-17.067 17.067h-136.533c-9.421 0-17.067-7.629-17.067-17.067s7.646-17.067 17.067-17.067h136.533zM597.333 379.733h119.467c9.421 0 17.067 7.629 17.067 17.067s-7.646 17.067-17.067 17.067h-119.467c-9.421 0-17.067-7.629-17.067-17.067s7.646-17.067 17.067-17.067zM972.8 960h-546.133c-28.228 0-51.2-22.972-51.2-51.2v-273.067c0-9.438 7.646-17.067 17.067-17.067s17.067 7.629 17.067 17.067v273.067c0 9.421 7.663 17.067 17.067 17.067h546.133c9.404 0 17.067-7.646 17.067-17.067v-614.4h-136.533c-28.228 0-51.2-22.972-51.2-51.2v-136.533h-204.8c-9.421 0-17.067-7.629-17.067-17.067s7.646-17.067 17.067-17.067h221.867c2.236 0 4.437 0.444 6.502 1.297s3.959 2.099 5.564 3.703l187.733 187.733c1.468 1.468 2.509 3.174 3.345 5.001 0.239 0.529 0.393 1.058 0.58 1.621 0.478 1.417 0.768 2.867 0.853 4.369 0.034 0.375 0.222 0.7 0.222 1.075v631.467c0 28.228-22.972 51.2-51.2 51.2zM836.267 130.799v112.401c0 9.421 7.663 17.067 17.067 17.067h112.401l-129.468-129.468zM460.8 584.533h-375.467c-47.053 0-85.333-38.281-85.333-85.333v-477.867c0-47.053 38.281-85.333 85.333-85.333h375.467c47.053 0 85.333 38.281 85.333 85.333v477.867c0 47.053-38.281 85.333-85.333 85.333zM512 21.333c0-28.228-22.972-51.2-51.2-51.2h-375.467c-28.228 0-51.2 22.972-51.2 51.2v477.867c0 28.228 22.972 51.2 51.2 51.2h375.467c28.228 0 51.2-22.972 51.2-51.2v-477.867zM409.6 499.2h-273.067c-28.228 0-51.2-22.972-51.2-51.2v-51.2c0-28.228 22.972-51.2 51.2-51.2h273.067c28.228 0 51.2 22.972 51.2 51.2v51.2c0 28.228-22.972 51.2-51.2 51.2zM426.667 396.8c0-9.421-7.663-17.067-17.067-17.067h-273.067c-9.404 0-17.067 7.646-17.067 17.067v51.2c0 9.421 7.663 17.067 17.067 17.067h273.067c9.404 0 17.067-7.646 17.067-17.067v-51.2zM443.733 277.333h-34.133c-9.421 0-17.067-7.629-17.067-17.067s7.646-17.067 17.067-17.067h34.133c9.421 0 17.067 7.629 17.067 17.067s-7.646 17.067-17.067 17.067zM443.733 174.933h-34.133c-9.421 0-17.067-7.629-17.067-17.067s7.646-17.067 17.067-17.067h34.133c9.421 0 17.067 7.629 17.067 17.067s-7.646 17.067-17.067 17.067zM443.733 72.533h-34.133c-9.421 0-17.067-7.629-17.067-17.067s7.646-17.067 17.067-17.067h34.133c9.421 0 17.067 7.629 17.067 17.067s-7.646 17.067-17.067 17.067zM341.333 277.333h-34.133c-9.421 0-17.067-7.629-17.067-17.067s7.646-17.067 17.067-17.067h34.133c9.421 0 17.067 7.629 17.067 17.067s-7.646 17.067-17.067 17.067zM238.933 277.333h-34.133c-9.421 0-17.067-7.629-17.067-17.067s7.646-17.067 17.067-17.067h34.133c9.421 0 17.067 7.629 17.067 17.067s-7.646 17.067-17.067 17.067zM136.533 277.333h-34.133c-9.421 0-17.067-7.629-17.067-17.067s7.646-17.067 17.067-17.067h34.133c9.421 0 17.067 7.629 17.067 17.067s-7.646 17.067-17.067 17.067zM341.333 174.933h-34.133c-9.421 0-17.067-7.629-17.067-17.067s7.646-17.067 17.067-17.067h34.133c9.421 0 17.067 7.629 17.067 17.067s-7.646 17.067-17.067 17.067zM238.933 174.933h-34.133c-9.421 0-17.067-7.629-17.067-17.067s7.646-17.067 17.067-17.067h34.133c9.421 0 17.067 7.629 17.067 17.067s-7.646 17.067-17.067 17.067zM136.533 174.933h-34.133c-9.421 0-17.067-7.629-17.067-17.067s7.646-17.067 17.067-17.067h34.133c9.421 0 17.067 7.629 17.067 17.067s-7.646 17.067-17.067 17.067zM341.333 72.533h-34.133c-9.421 0-17.067-7.629-17.067-17.067s7.646-17.067 17.067-17.067h34.133c9.421 0 17.067 7.629 17.067 17.067s-7.646 17.067-17.067 17.067zM238.933 72.533h-34.133c-9.421 0-17.067-7.629-17.067-17.067s7.646-17.067 17.067-17.067h34.133c9.421 0 17.067 7.629 17.067 17.067s-7.646 17.067-17.067 17.067zM136.533 72.533h-34.133c-9.421 0-17.067-7.629-17.067-17.067s7.646-17.067 17.067-17.067h34.133c9.421 0 17.067 7.629 17.067 17.067s-7.646 17.067-17.067 17.067zM136.533 755.2h34.133v-34.133c0-9.438 7.646-17.067 17.067-17.067s17.067 7.629 17.067 17.067v34.133h34.133c9.421 0 17.067 7.629 17.067 17.067s-7.646 17.067-17.067 17.067h-34.133v34.133c0 9.438-7.646 17.067-17.067 17.067s-17.067-7.629-17.067-17.067v-34.133h-34.133c-9.421 0-17.067-7.629-17.067-17.067s7.646-17.067 17.067-17.067z" />
<glyph unicode="&#xe92d;" glyph-name="wpicon_set_-20" d="M544.386 786.592c47.914 0 86.724 38.823 86.724 86.715 0 47.874-38.81 86.691-86.724 86.691-47.835 0-86.695-38.816-86.695-86.691 0-47.892 38.861-86.715 86.695-86.715zM854.103 511.837c0 24.71-20.029 44.739-44.744 44.739h-151.287l-85.321 121.137 0.281 2.061c3.044 23.14-3.256 46.542-17.477 65.049-14.23 18.509-35.198 30.602-58.342 33.647-25.618 3.338-49.911-4.913-68.16-20.38v100.772c0 17.336-14.055 31.409-31.426 31.409h-87.029c-17.38 0-31.426-14.073-31.426-31.409v-373.258c0-45.687 34.952-82.794 79.486-87.146l-6.723-15.626-52.71-199.132-118.703-159.481c-17.687-23.789-12.8-57.412 11.011-75.117 9.606-7.169 20.862-10.629 32.014-10.629 16.397 0 32.54 7.478 43.105 21.64l124.886 167.781c4.089 5.488 7.098 11.707 8.844 18.312l35.936 135.679 98.358-90.307-13.423-195.746c-2.026-29.588 20.274-55.209 49.885-57.237 1.22-0.088 2.483-0.124 3.736-0.124 27.969 0 51.562 21.693 53.481 50.022l15.204 221.508c1.122 16.269-5.238 32.193-17.265 43.222l-101.612 93.272 30.912 200.186 42.707-60.611c8.397-11.901 22.031-18.982 36.567-18.982h156.596l2.958-513.194c0-9.893 8.011-17.897 17.897-17.897 9.895 0 17.897 8.006 17.897 17.897l-2.958 517.043c15.765 6.906 26.847 22.581 26.847 40.9z" />
<glyph unicode="&#xe92e;" glyph-name="wpicon_set_-21" d="M1006.932 38.401h-51.199v904.534c0 10.24-6.826 17.066-17.066 17.066h-853.334c-10.24 0-17.066-6.826-17.066-17.066v-904.532h-51.201c-10.24 0-17.066-6.826-17.066-17.066v-68.267c0-10.24 6.826-17.066 17.066-17.066h989.866c10.24 0 17.066 6.826 17.066 17.066v68.267c0.002 10.238-6.826 17.064-17.066 17.064zM102.401 925.866h819.199v-887.466h-256.001v187.733c0 10.24-6.826 17.066-17.066 17.066h-273.068c-10.24 0-17.066-6.826-17.066-17.066v-187.733h-255.998v887.466zM392.533 38.401v170.666h102.401v-170.666h-102.401zM529.067 209.068h102.401v-170.666h-102.401v170.666zM989.866-29.866h-955.733v34.134h955.735v-34.134zM324.266 874.667h-136.532c-10.24 0-17.066-6.826-17.066-17.066v-102.401c0-10.24 6.826-17.066 17.066-17.066h136.534c10.24 0 17.066 6.826 17.066 17.066v102.399c0 10.24-6.828 17.068-17.068 17.068zM307.2 772.267h-102.401v68.267h102.401v-68.267zM324.266 686.934h-136.532c-10.24 0-17.066-6.826-17.066-17.066v-102.401c0-10.24 6.826-17.066 17.066-17.066h136.534c10.24 0 17.066 6.826 17.066 17.066v102.401c0 10.24-6.828 17.066-17.068 17.066zM307.2 584.533h-102.401v68.267h102.401v-68.267zM443.732 550.4h136.534c10.24 0 17.066 6.826 17.066 17.066v102.401c0 10.24-6.826 17.066-17.066 17.066h-136.534c-10.24 0-17.066-6.826-17.066-17.066v-102.401c0-10.238 6.826-17.066 17.066-17.066zM460.8 652.8h102.401v-68.267h-102.401v68.267zM699.732 550.4h136.534c10.24 0 17.066 6.826 17.066 17.066v102.401c0 10.24-6.826 17.066-17.066 17.066h-136.534c-10.24 0-17.066-6.826-17.066-17.066v-102.401c0-10.238 6.826-17.066 17.066-17.066zM716.8 652.8h102.401v-68.267h-102.401v68.267zM443.732 362.666h136.534c10.24 0 17.066 6.826 17.066 17.066v102.401c0 10.24-6.826 17.066-17.066 17.066h-136.534c-10.24 0-17.066-6.826-17.066-17.066v-102.401c0-10.238 6.826-17.066 17.066-17.066zM460.8 465.067h102.401v-68.267h-102.401v68.267zM699.732 362.666h136.534c10.24 0 17.066 6.826 17.066 17.066v102.401c0 10.24-6.826 17.066-17.066 17.066h-136.534c-10.24 0-17.066-6.826-17.066-17.066v-102.401c0-10.238 6.826-17.066 17.066-17.066zM716.8 465.067h102.401v-68.267h-102.401v68.267zM324.266 499.2h-136.532c-10.24 0-17.066-6.826-17.066-17.066v-102.401c0-10.24 6.826-17.066 17.066-17.066h136.534c10.24 0 17.066 6.826 17.066 17.066v102.401c0 10.24-6.828 17.066-17.068 17.066zM307.2 396.8h-102.401v68.267h102.401v-68.267zM443.732 738.133h136.534c10.24 0 17.066 6.826 17.066 17.066v102.401c0 10.24-6.826 17.066-17.066 17.066h-136.534c-10.24 0-17.066-6.826-17.066-17.066v-102.401c0-10.238 6.826-17.066 17.066-17.066zM460.8 840.534h102.401v-68.267h-102.401v68.267zM699.732 738.133h136.534c10.24 0 17.066 6.826 17.066 17.066v102.401c0 10.24-6.826 17.066-17.066 17.066h-136.534c-10.24 0-17.066-6.826-17.066-17.066v-102.401c0-10.238 6.826-17.066 17.066-17.066zM716.8 840.534h102.401v-68.267h-102.401v68.267zM409.6 277.333h204.799c10.24 0 17.066 6.826 17.066 17.066s-6.826 17.066-17.066 17.066h-204.799c-10.24 0-17.066-6.826-17.066-17.066-0.002-10.238 6.826-17.066 17.066-17.066z" />
<glyph unicode="&#xe92f;" glyph-name="wpicon_set_-22" d="M553.047 775.905c0-49.544-40.163-89.707-89.707-89.707s-89.707 40.163-89.707 89.707c0 49.544 40.163 89.707 89.707 89.707s89.707-40.163 89.707-89.707zM832.145 719.561v86.704l-279.032-115.595 65.852-27.295v-19.652c-3.186-1.25-6.378-2.429-9.193-4.609l-106.376-83.888-78.136 101.624c-1.87 7.862-5.397 15.175-10.271 21.644-4.147 11.343-12.827 20.978-24.973 25.669-15.083 5.804-31.239 2.505-42.902-7.044-4.935-2.023-9.468-4.935-13.726-8.233l-165.251-50.85c-11.882-3.654-21.070-13.183-24.277-25.191l-39.157-146.153c-5.168-19.266 6.281-39.070 25.547-44.234 3.125-0.839 6.266-1.204 9.376-1.204 15.937 0 30.543 10.642 34.857 26.736l33.993 126.857 80.239 24.693-60.948-149.944c-5.57-13.615-5.295-28.037-0.757-40.91l-90.464-166.176-122.496-112.332c-17.655-16.151-18.834-43.568-2.632-61.274 8.558-9.28 20.206-14.047 31.935-14.047 10.489 0 20.984 3.771 29.323 11.384l127.792 117.221c3.512 3.217 6.464 7.054 8.772 11.201l75.29 138.382 84.961-95.313-4.604-162.791c-0.666-23.951 18.199-43.913 42.145-44.559 0.417 0 0.823 0 1.24 0 23.377 0 42.658 18.595 43.324 42.145l5.062 180.009c0.295 11.079-3.639 21.812-10.987 30.080l-110.594 124.056 66.162 162.878 67.118-87.293c5.895-7.674 14.606-12.644 24.216-13.848 1.453-0.183 2.968-0.295 4.426-0.295 8.091 0 15.968 2.709 22.406 7.765l113.369 89.433h29.74v26.553c7.023 11.313 7.059 25.542 0 37.317v16.232l169.642-70.274v86.689c15.968 0 28.906 12.934 28.906 28.901-0.015 15.937-12.984 28.83-28.917 28.83zM861.046 853.593v-11.216c83.644 0 151.692-68.068 151.692-151.682 0-83.66-68.048-151.692-151.692-151.692v-11.216c89.834 0 162.954 73.074 162.954 162.939-0.030 89.778-73.12 162.868-162.954 162.868zM967.803 690.67c0-58.89-47.903-106.762-106.757-106.762v-11.216c65.044 0 118.024 52.919 118.024 118.009 0 65.019-52.949 117.963-118.024 117.963v-11.216c58.854-0.066 106.757-47.933 106.757-106.778zM922.843 690.67c0-34.1-27.727-61.827-61.797-61.827v-11.216c40.29 0 73.028 32.769 73.028 73.043s-32.738 73.033-73.028 73.033v-11.221c34.070-0.030 61.797-27.727 61.797-61.812z" />
<glyph unicode="&#xe930;" glyph-name="wpicon_set_-23" d="M224.024 157.21c-16.006 16.006-37.286 24.82-59.918 24.82-13.37 0-26.258-3.1-37.876-8.916-114.166 161.748-114.562 383.399 0.966 545.539 6.408 8.996 4.312 21.484-4.684 27.894s-21.484 4.314-27.894-4.682c-63.726-89.438-96.418-195.054-94.542-305.429 1.786-105.038 34.766-204.678 95.528-289.265-24.144-33.12-21.286-79.924 8.584-109.798 16.52-16.518 38.218-24.778 59.918-24.778s43.398 8.26 59.918 24.778c33.038 33.040 33.038 86.796 0 119.836zM195.738 65.66c-17.446-17.442-45.824-17.442-63.266 0-17.444 17.444-17.444 45.826 0 63.268 8.45 8.45 19.684 13.104 31.632 13.104s23.184-4.654 31.632-13.104c17.446-17.444 17.446-45.826 0.002-63.268zM815.926 57.708c-6.462 8.952-18.962 10.968-27.92 4.498-57.176-41.314-121.45-68.684-191.038-81.35-16.124-2.936-32.568 1.386-45.114 11.854-12.456 10.392-19.598 25.66-19.598 41.886v146.596h1.746c23.158 0 42 18.84 42 42v33.766c67.746 25.86 116 91.512 116 168.232v94.69c32.232 8.804 56 38.326 56 73.31 0 38.514-28.806 70.408-66 75.322v124.678c0 33.084-26.916 60-60 60s-60-26.916-60-60v-124h-100v124c0 33.084-26.916 60-60 60s-60-26.916-60-60v-124.678c-37.194-4.914-66-36.806-66-75.322 0-34.984 23.768-64.506 56-73.31v-94.69c0-76.72 48.254-142.372 116-168.232v-33.768c0-23.16 18.842-42 42-42h2.254v-146.596c0-28.124 12.382-54.584 33.97-72.598 17.23-14.376 38.702-22.046 60.758-22.046 5.698 0 11.434 0.512 17.146 1.552 75.504 13.744 145.25 43.446 207.298 88.282 8.954 6.47 10.966 18.972 4.498 27.924zM602.003 793.192c0 11.028 8.972 20 20 20s20-8.972 20-20v-124h-40v124zM382.003 793.192c0 11.028 8.972 20 20 20s20-8.972 20-20v-124h-40v124zM316.003 593.191c0 19.85 16.15 36 36 36h320.001c19.85 0 36-16.15 36-36s-16.15-36-36-36h-320.001c-19.85 0-36 16.15-36 36zM372.003 425.191v92h280.001v-92c0-77.196-62.804-140-140-140s-140 62.804-140 140zM512.761 221.191c-0.168 0.004-0.334 0.026-0.502 0.026s-0.334-0.022-0.502-0.026h-21.75c-1.108 0-2.004 0.898-2.004 2v23.604c7.854-1.052 15.864-1.604 24-1.604s16.146 0.552 24 1.604v-23.604c0-1.102-0.896-2-2-2h-21.242zM873.546 111.916c-7.926 7.4-20.276 7.114-27.856-0.548-0.154-0.156-0.308-0.316-0.454-0.47-7.538-8.076-7.1-20.73 0.974-28.268 3.856-3.598 8.754-5.378 13.642-5.378 5.166 0 10.32 1.99 14.214 5.926 0.154 0.156 0.308 0.316 0.454 0.47 7.538 8.076 7.1 20.73-0.974 28.268zM1022.644 482.575c-8.91 122.436-61.684 237.732-148.594 324.647-85.424 85.43-199.536 137.722-321.315 147.24-120.294 9.406-240.016-23.238-337.153-91.91-9.020-6.376-11.162-18.858-4.786-27.876 6.374-9.018 18.858-11.164 27.876-4.786 185.746 131.314 446.739 109.412 607.093-50.952 165.714-165.722 185.752-423.073 47.642-611.921-6.52-8.916-4.578-21.428 4.338-27.95 3.56-2.604 7.694-3.858 11.792-3.858 6.162 0 12.242 2.838 16.16 8.196 71.336 97.548 105.768 218 96.946 339.171zM175.818 804.91c-7.846 7.774-20.51 7.722-28.286-0.126l-0.326-0.332c-7.776-7.844-7.718-20.508 0.126-28.284 3.9-3.864 8.99-5.794 14.080-5.794 5.146 0 10.294 1.976 14.206 5.92l0.326 0.332c7.776 7.844 7.718 20.508-0.126 28.284zM557.097 432.597c-3.584 6.148-10.164 9.928-17.28 9.928h-14.292l26.324 33.252c6.856 8.66 5.392 21.24-3.268 28.094-8.66 6.858-21.24 5.392-28.096-3.266l-51.984-65.666c-4.76-6.014-5.662-14.22-2.322-21.124s10.334-11.29 18.004-11.29h21.32l-24.492-43.244c-5.444-9.612-2.064-21.816 7.544-27.258 3.116-1.764 6.498-2.602 9.84-2.602 6.974 0.002 13.744 3.652 17.424 10.148l41.402 73.1c3.508 6.192 3.46 13.78-0.124 19.928z" />
<glyph unicode="&#xe931;" glyph-name="wpicon_set_-24" d="M1018.153 586.101c-5.008 6.109-12.481 9.675-20.321 9.675h-99.663c-24.594 64.869-56.635 128.426-93.055 152.417-125.988 82.882-460.163 82.882-586.15 0-36.446-24.018-68.356-87.654-93.081-152.417h-99.663c-7.918 0-15.365-3.566-20.321-9.675-4.982-6.083-6.975-14.133-5.349-21.868l14.762-71.528c2.517-12.192 13.267-20.897 25.669-20.897h29.524c-28.501-32.88-42.319-74.282-42.503-115.709-0.184-51.182 19.246-97.434 54.774-130.157 0.393-0.341 0.787-0.577 1.154-0.918v-100.082c0-21.684 17.62-39.33 39.33-39.33h91.928c21.71 0 39.33 17.646 39.33 39.33v40.222h514.989v-40.222c0-21.684 17.62-39.33 39.33-39.33h91.928c21.658 0 39.33 17.646 39.33 39.33v98.116c37.705 34.532 55.718 82.043 55.954 129.475 0.157 42.844-14.29 85.766-44.469 119.328h31.49c12.455 0 23.205 8.705 25.669 20.924l14.788 71.502c1.521 7.682-0.393 15.68-5.375 21.815zM262.149 682.513c100.423 66.101 399.306 66.101 499.677 0 19.508-12.795 44.6-64.528 67.595-127.875h-634.815c22.943 63.322 48.035 115.028 67.543 127.875zM144.525 346.24c0 42.739 34.663 77.349 77.376 77.349 42.765 0 77.376-34.611 77.376-77.349s-34.611-77.376-77.376-77.376c-42.713 0-77.376 34.637-77.376 77.376zM803.148 268.864c-42.713 0-77.376 34.637-77.376 77.376s34.663 77.349 77.376 77.349c42.765 0 77.376-34.611 77.376-77.349s-34.663-77.376-77.376-77.376z" />
<glyph unicode="&#xe932;" glyph-name="wpicon_set_-25" d="M1023.972 560.069c-0.028 0.572-0.090 1.146-0.178 1.724-0.026 0.17-0.052 0.342-0.084 0.512-0.128 0.678-0.286 1.354-0.504 2.026-0.218 0.674-0.488 1.312-0.782 1.934-0.076 0.156-0.156 0.314-0.236 0.468-0.264 0.516-0.552 1.014-0.862 1.492-0.066 0.098-0.122 0.2-0.19 0.296-0.392 0.572-0.814 1.116-1.27 1.626-0.070 0.076-0.144 0.148-0.214 0.224-0.396 0.43-0.818 0.834-1.256 1.216-0.12 0.104-0.24 0.212-0.362 0.312-0.52 0.428-1.058 0.832-1.626 1.192-0.040 0.026-0.082 0.046-0.124 0.070-0.532 0.328-1.082 0.62-1.648 0.886-0.164 0.076-0.324 0.148-0.49 0.222-0.58 0.25-1.17 0.478-1.778 0.66-0.042 0.014-0.080 0.030-0.124 0.042-0.676 0.2-1.366 0.342-2.068 0.452-0.056 0.008-0.106 0.028-0.164 0.036l-333.997 48.532-149.362 302.651c-0.028 0.054-0.066 0.104-0.094 0.16-0.318 0.626-0.664 1.23-1.056 1.808-0.028 0.042-0.062 0.076-0.090 0.118-0.36 0.516-0.752 1.006-1.168 1.478-0.12 0.136-0.238 0.266-0.362 0.398-0.434 0.46-0.884 0.898-1.368 1.308-0.030 0.026-0.056 0.052-0.088 0.078-0.52 0.432-1.074 0.822-1.644 1.188-0.128 0.080-0.26 0.156-0.39 0.236-0.506 0.306-1.028 0.584-1.566 0.832-0.088 0.042-0.172 0.084-0.26 0.126-0.63 0.276-1.278 0.512-1.948 0.71-0.11 0.032-0.22 0.052-0.33 0.082-0.554 0.15-1.118 0.272-1.696 0.364-0.172 0.028-0.342 0.054-0.514 0.078-0.684 0.088-1.374 0.146-2.082 0.146s-1.398-0.058-2.082-0.146c-0.172-0.024-0.344-0.050-0.514-0.078-0.576-0.092-1.14-0.214-1.696-0.364-0.11-0.030-0.22-0.050-0.328-0.082-0.668-0.198-1.318-0.434-1.948-0.71-0.088-0.042-0.172-0.084-0.26-0.126-0.54-0.248-1.062-0.528-1.566-0.832-0.13-0.078-0.262-0.154-0.39-0.236-0.57-0.366-1.124-0.756-1.646-1.188-0.030-0.026-0.058-0.052-0.088-0.078-0.484-0.41-0.934-0.848-1.368-1.308-0.122-0.132-0.242-0.264-0.362-0.398-0.414-0.47-0.808-0.958-1.168-1.478-0.028-0.042-0.062-0.076-0.090-0.118-0.392-0.578-0.738-1.182-1.056-1.808-0.028-0.054-0.066-0.104-0.094-0.16l-149.366-302.651-333.987-48.54c-0.054-0.008-0.106-0.026-0.162-0.034-0.704-0.112-1.398-0.254-2.076-0.454-0.712-0.218-1.316-0.446-1.906-0.704-0.156-0.068-0.314-0.138-0.468-0.212-0.58-0.274-1.146-0.572-1.69-0.91-0.658-0.41-1.2-0.82-1.726-1.25-0.116-0.096-0.226-0.194-0.34-0.294-0.448-0.39-0.876-0.8-1.282-1.24-0.064-0.068-0.13-0.132-0.194-0.202-0.46-0.514-0.886-1.058-1.282-1.636-0.064-0.092-0.118-0.188-0.178-0.282-0.316-0.484-0.606-0.984-0.872-1.506-0.078-0.152-0.16-0.304-0.234-0.462-0.294-0.624-0.564-1.264-0.784-1.938-0.218-0.674-0.374-1.348-0.504-2.026-0.032-0.17-0.056-0.342-0.084-0.512-0.090-0.578-0.15-1.15-0.178-1.724-0.006-0.116-0.018-0.226-0.022-0.34-0.020-0.696 0.004-1.386 0.074-2.068 0.010-0.1 0.028-0.196 0.040-0.296 0.070-0.586 0.172-1.164 0.302-1.734 0.034-0.152 0.068-0.306 0.106-0.456 0.17-0.654 0.368-1.298 0.616-1.924 0.018-0.044 0.042-0.086 0.058-0.128 0.236-0.578 0.51-1.136 0.808-1.68 0.090-0.162 0.18-0.32 0.274-0.482 0.314-0.53 0.652-1.044 1.022-1.536 0.036-0.048 0.068-0.102 0.104-0.148 0.422-0.546 0.892-1.058 1.382-1.554 0.046-0.046 0.082-0.098 0.13-0.144l241.684-235.576-57.046-332.645c-0.010-0.058-0.008-0.12-0.018-0.18-0.112-0.69-0.188-1.388-0.206-2.086-0.002-0.052 0.002-0.104 0.002-0.156-0.014-0.626 0.018-1.246 0.076-1.868 0.018-0.18 0.038-0.362 0.058-0.542 0.078-0.616 0.186-1.23 0.336-1.838 0.010-0.046 0.018-0.094 0.028-0.138 0.166-0.652 0.384-1.29 0.63-1.918 0.056-0.146 0.12-0.29 0.18-0.434 0.228-0.538 0.486-1.066 0.774-1.58 0.048-0.088 0.092-0.176 0.142-0.264 0.346-0.59 0.732-1.164 1.154-1.714 0.070-0.092 0.148-0.176 0.222-0.268 0.358-0.444 0.742-0.872 1.152-1.284 0.124-0.126 0.244-0.248 0.372-0.37 0.502-0.47 1.026-0.926 1.596-1.34 0.674-0.49 1.38-0.912 2.104-1.288 0.29-0.148 0.588-0.26 0.884-0.392 0.44-0.196 0.88-0.392 1.334-0.546 0.356-0.122 0.714-0.212 1.074-0.308 0.412-0.112 0.822-0.216 1.238-0.292 0.372-0.070 0.746-0.118 1.122-0.16 0.42-0.046 0.838-0.080 1.26-0.096 0.192-0.008 0.382-0.046 0.572-0.046 0.228 0 0.456 0.030 0.682 0.042 0.238 0.008 0.474 0.020 0.712 0.042 0.488 0.042 0.97 0.112 1.452 0.196 0.216 0.040 0.432 0.066 0.644 0.114 0.642 0.14 1.278 0.316 1.902 0.532 0.042 0.016 0.082 0.022 0.124 0.036 0.68 0.242 1.34 0.538 1.984 0.87 0.036 0.020 0.078 0.032 0.116 0.050l298.733 157.052 298.733-157.052c0.040-0.022 0.080-0.034 0.12-0.052 0.396-0.204 0.804-0.376 1.214-0.546 0.198-0.082 0.392-0.178 0.594-0.252 0.398-0.146 0.808-0.262 1.216-0.376 0.218-0.062 0.432-0.14 0.65-0.192 0.434-0.104 0.876-0.172 1.318-0.24 0.194-0.030 0.384-0.078 0.578-0.1 0.64-0.076 1.286-0.118 1.93-0.118 3.33 0 6.69 1.016 9.59 3.124 0.57 0.414 1.096 0.87 1.598 1.34 0.128 0.122 0.25 0.244 0.372 0.37 0.41 0.41 0.796 0.838 1.152 1.284 0.072 0.092 0.15 0.176 0.222 0.268 0.422 0.552 0.808 1.124 1.154 1.714 0.050 0.088 0.094 0.176 0.142 0.264 0.288 0.512 0.544 1.042 0.774 1.58 0.062 0.144 0.124 0.288 0.18 0.434 0.246 0.628 0.464 1.266 0.63 1.918 0.010 0.046 0.018 0.094 0.028 0.138 0.148 0.606 0.254 1.222 0.336 1.838 0.024 0.18 0.042 0.362 0.058 0.542 0.058 0.62 0.090 1.242 0.076 1.868 0 0.052 0.004 0.104 0.002 0.156-0.020 0.698-0.098 1.394-0.208 2.086-0.008 0.062-0.006 0.122-0.018 0.18l-57.052 332.647 241.68 235.58c0.048 0.046 0.082 0.1 0.13 0.144 0.492 0.492 0.96 1.006 1.384 1.554 0.038 0.046 0.068 0.1 0.104 0.148 0.372 0.492 0.708 1.006 1.022 1.536 0.094 0.16 0.188 0.318 0.274 0.482 0.298 0.544 0.572 1.104 0.808 1.68 0.018 0.044 0.042 0.084 0.058 0.128 0.248 0.626 0.446 1.27 0.616 1.924 0.040 0.15 0.072 0.302 0.106 0.456 0.13 0.57 0.234 1.148 0.302 1.734 0.010 0.1 0.030 0.196 0.040 0.296 0.068 0.682 0.094 1.372 0.074 2.068 0.010 0.11-0.004 0.224-0.010 0.336zM351.415 591.459l117.808-162.146-381.229 123.87 263.421 38.276zM77.89 522.101l381.233-123.87-190.616-61.938-190.616 185.808zM495.661 147.512l-235.612-123.87 92.796 127.722c5.306 7.302 3.684 17.52-3.616 22.824-7.304 5.312-17.522 3.684-22.824-3.614l-92.796-127.72 44.998 262.359 190.616 61.938-104.402-143.694c-5.306-7.302-3.684-17.52 3.616-22.824 2.9-2.11 6.262-3.124 9.59-3.124 5.052 0 10.036 2.338 13.234 6.738l104.4 143.692v-200.426zM495.661 448.519l-117.808 162.146 117.808 238.708v-400.855zM528.343 849.374l117.808-238.706-117.808-162.146v400.853zM528.343 147.512v200.424l235.614-324.297-235.614 123.872zM790.396 42.854l-235.614 324.297 190.616-61.936 44.998-262.361zM755.499 336.295l-190.618 61.938 168.92 54.884c8.582 2.788 13.282 12.008 10.49 20.59-2.788 8.584-12.010 13.284-20.592 10.49l-168.918-54.884 117.808 162.146 263.423-38.276-150.144-48.786c-8.582-2.788-13.282-12.008-10.49-20.59 2.244-6.906 8.65-11.296 15.536-11.296 1.674 0 3.374 0.26 5.052 0.804l150.15 48.786-190.616-185.806z" />
<glyph unicode="&#xe933;" glyph-name="wpicon_set_-26" d="M1023.298 678.839c-4.96 72.73-36.112 141.206-87.716 192.808-117.716 117.716-309.253 117.716-426.967 0l-473.533-473.533c-46.776-46.78-46.776-122.89 0-169.67l257.297-257.297c23.39-23.388 54.112-35.082 84.836-35.082s61.446 11.694 84.836 35.082l339.663 339.663c22.718 22.718 35.2 52.922 35.15 85.048-0.050 32.128-12.628 62.292-35.418 84.938-62.832 62.438-126.316 125.154-129.042 127.846-13.534 13.582-20.78 31.622-20.402 50.806 0.378 19.212 8.392 37.004 22.564 50.1 26.046 24.066 67.21 24.522 93.714 1.034 23.346-20.688 30.312-53.554 17.336-81.784l-11.628-25.302 162.672-162.672 27.65 37.066c42.948 57.584 63.9 128.948 58.988 200.948zM924.17 566.453l-56.304 56.304c13.080 53.358-3.998 110.016-46.532 147.706-27.734 24.576-63.616 37.882-100.958 37.474-37.346-0.41-72.9-14.482-100.112-39.628-30.306-28.004-47.442-66.104-48.254-107.28-0.812-41.19 14.78-79.918 43.908-109.046l0.174-0.174c0.644-0.636 65.136-64.342 128.956-127.762 7.596-7.548 11.79-17.606 11.806-28.314s-4.144-20.778-11.716-28.348l-339.659-339.665c-15.584-15.584-40.94-15.584-56.526 0l-257.299 257.295c-15.584 15.584-15.584 40.944 0 56.528l473.533 473.535c43.26 43.26 100.084 64.89 156.91 64.89s113.652-21.63 156.912-64.89c66.014-66.018 82.336-166.24 45.16-248.624zM450.193 388.257c3.294 3.294 25.274 45.454-8.508 79.24-12.132 12.132-27.564 18.668-43.566 18.548-15.958-0.12-32.486-6.854-46.884-21.252-18.042-18.040-23.468-49.79-23.264-81.844 0.24-37.444 0-116.918 0-116.918h113.724c32.948 0 66.394 4.622 85.032 23.262 14.718 14.716 21.428 31.66 21.25 47.948-0.17 15.626-6.68 30.642-18.546 42.506-33.784 33.784-76.28 11.47-79.238 8.51z" />
<glyph unicode="&#xe934;" glyph-name="wpicon_set_-27" d="M874.040 298.040c-55.766 55.764-122.142 97.046-194.562 122.036 77.564 53.422 128.522 142.828 128.522 243.924 0 163.214-132.786 296-296 296s-296-132.786-296-296c0-101.096 50.958-190.502 128.524-243.924-72.42-24.99-138.796-66.272-194.562-122.036-96.704-96.706-149.962-225.28-149.962-362.040h80c0 238.206 193.794 432 432 432s432-193.794 432-432h80c0 136.76-53.258 265.334-149.96 362.040zM512 448c-119.102 0-216 96.896-216 216s96.898 216 216 216c119.102 0 216-96.896 216-216s-96.898-216-216-216z" />
<glyph unicode="&#xe935;" glyph-name="wpicon_set_-28" d="M1024-20.748v393.976c0 16.094-9.834 30.513-24.811 36.438l-373.746 146.3v360.781c0 21.571-17.546 39.118-39.118 39.118h-547.207c-21.571 0-39.118-17.547-39.118-39.118v-937.494c0-21.57 17.547-39.118 39.118-39.118h181.955v79.132c0 50.631 41.018 91.76 91.76 91.76v0c50.63 0 91.761-41.017 91.761-91.76v-79.132h580.513c21.346 0 38.892 17.438 38.892 39.118zM239.85 190.827h-119.478v102.488c0 32.971 26.712 59.683 59.683 59.683s59.683-26.712 59.683-59.683v-102.488h0.112zM239.85 436.712h-119.478v102.49c0 32.971 26.712 59.683 59.683 59.683s59.683-26.712 59.683-59.683v-102.49h0.112zM239.85 682.709h-119.478v102.49c0 32.971 26.712 59.683 59.683 59.683s59.683-26.712 59.683-59.683v-102.49h0.112zM505.071 190.827h-119.478v102.488c0 32.971 26.711 59.683 59.682 59.683s59.683-26.712 59.683-59.683v-102.488h0.113zM505.071 436.712h-119.478v102.49c0 32.971 26.711 59.683 59.682 59.683s59.683-26.712 59.683-59.683v-102.49h0.113zM505.071 682.709h-119.478v102.49c0 32.971 26.711 59.683 59.682 59.683s59.683-26.712 59.683-59.683v-102.49h0.113zM933.918 134.273h-218.278v282.432l218.278-85.501v-196.931zM670.708 955.866v-298.527h298.527c21.572 0 39.118 17.547 39.118 39.118v220.291c0 21.571-17.546 39.118-39.118 39.118h-298.527zM920.506 725.516c0-12.294-10.059-22.353-22.353-22.353h-5.253c-12.294 0-22.353 10.059-22.353 22.353v61.583h-64.824v-61.583c0-12.294-10.059-22.353-22.353-22.353h-5.254c-12.294 0-22.353 10.059-22.353 22.353v158.484c0 12.294 10.059 22.353 22.353 22.353h5.254c12.294 0 22.353-10.059 22.353-22.353v-53.201h64.824v53.201c0 12.294 10.059 22.353 22.353 22.353h5.252c12.294 0 22.353-10.059 22.353-22.353v-158.484z" />
<glyph unicode="&#xe936;" glyph-name="wpicon_set_-29" d="M874.040 810.040c-96.706 96.702-225.28 149.96-362.040 149.96s-265.334-53.258-362.040-149.96c-96.702-96.706-149.96-225.28-149.96-362.040s53.258-265.334 149.96-362.040c96.706-96.702 225.28-149.96 362.040-149.96 93.626 0 185.236 25.516 264.924 73.788 18.896 11.448 24.934 36.044 13.488 54.938-11.446 18.898-36.042 24.934-54.936 13.488-31.58-19.13-65.388-34.022-100.558-44.432l-6.922 34.096c-4.396 21.648-25.502 35.63-47.16 31.242-21.65-4.396-35.638-25.51-31.242-47.16l6.838-33.682c-14.712-1.514-29.54-2.278-44.432-2.278-14.608 0-29.050 0.73-43.288 2.152l6.366 33.368c4.14 21.7-10.094 42.648-31.794 46.788-21.708 4.148-42.648-10.092-46.788-31.794l-6.302-33.030c-30.090 8.856-58.826 20.908-85.812 35.76l18.432 27.508c12.296 18.352 7.386 43.2-10.966 55.494-18.356 12.298-43.202 7.388-55.496-10.966l-18.194-27.156c-21.17 17.396-40.664 36.76-58.198 57.814l26.584 18.066c18.272 12.418 23.018 37.294 10.602 55.566s-37.296 23.016-55.566 10.602l-26.94-18.308c-15.060 26.938-27.32 55.644-36.382 85.724l31.62 6.42c21.65 4.394 35.638 25.508 31.242 47.158-4.396 21.648-25.514 35.646-47.16 31.24l-31.528-6.4c-1.608 15.116-2.432 30.46-2.432 45.994 0 13.81 0.652 27.47 1.926 40.952l31.596-6.028c2.534-0.484 5.056-0.716 7.542-0.716 18.82 0 35.59 13.344 39.246 32.512 4.142 21.702-10.094 42.65-31.794 46.788l-31.69 6.046c8.652 30 20.476 58.67 35.082 85.622l26.844-17.986c6.838-4.582 14.572-6.774 22.228-6.774 12.894 0 25.554 6.224 33.268 17.74 12.296 18.352 7.386 43.198-10.966 55.494l-26.92 18.036c17.858 22.020 37.834 42.254 59.616 60.39l18.366-27.026c7.74-11.388 20.318-17.522 33.12-17.522 7.74 0 15.562 2.242 22.446 6.92 18.272 12.418 23.018 37.294 10.602 55.566l-18.602 27.374c26.246 14.67 54.174 26.68 83.412 35.666l6.686-32.93c3.85-18.964 20.528-32.048 39.158-32.048 2.636 0 5.314 0.262 8 0.806 21.65 4.396 35.638 25.51 31.242 47.16l-6.756 33.27c15.874 1.776 32.006 2.688 48.348 2.688 13.266 0 26.396-0.602 39.36-1.778l-6.438-33.742c-4.14-21.7 10.094-42.648 31.794-46.788 2.536-0.484 5.054-0.716 7.542-0.716 18.82 0 35.59 13.344 39.248 32.512l6.512 34.128c30.378-8.638 59.402-20.526 86.672-35.26l-19.502-29.106c-12.296-18.352-7.386-43.2 10.966-55.494 6.838-4.58 14.574-6.774 22.228-6.774 12.894 0 25.552 6.222 33.268 17.74l19.608 29.266c22.322-18.058 42.818-38.29 61.158-60.372l-27.026-18.366c-18.272-12.416-23.018-37.294-10.602-55.566 7.74-11.39 20.316-17.522 33.12-17.522 7.738 0 15.564 2.242 22.446 6.92l27.294 18.546c14.804-26.562 26.884-54.838 35.866-84.45l-35.388-7.186c-21.65-4.394-35.638-25.508-31.242-47.158 3.85-18.964 20.528-32.048 39.158-32.048 2.636 0 5.316 0.262 8 0.808l35.442 7.196c1.662-15.374 2.516-30.984 2.516-46.79 0-13.972-0.682-27.884-2.032-41.694l-35.488 6.77c-21.71 4.156-42.648-10.092-46.788-31.794-4.142-21.702 10.094-42.65 31.794-46.788l35.266-6.728c-8.774-29.946-20.836-58.994-36.050-86.686l-29.452 19.732c-18.358 12.304-43.202 7.388-55.496-10.966-12.296-18.352-7.386-43.198 10.966-55.494l59.816-40.076c4.312-2.89 8.98-4.828 13.762-5.866 16.924-6.184 36.496-0.286 46.954 15.358 56.75 84.884 86.748 183.172 86.748 284.232 0 136.76-53.258 265.334-149.96 362.040zM664.346 666.84l-234-132c-6.456-3.642-11.772-9.006-15.356-15.492l-126-228c-8.486-15.358-5.974-34.454 6.196-47.092 7.726-8.026 18.2-12.258 28.828-12.258 6.112 0 12.276 1.4 17.998 4.286l223.948 112.93c14.266 7.194 22.514 11.356 28.12 23.464l125.402 240.85c8.178 15.706 5.056 34.918-7.672 47.228-12.732 12.306-32.038 14.782-47.464 6.084zM528.474 419.906c-20.056-10.116-63.54-32.042-106.796-53.856l57.848 104.68 106.768 60.228-57.82-111.052z" />
<glyph unicode="&#xe937;" glyph-name="wpicon_set_-30" d="M598.309 874.75c0-46.499-37.695-84.194-84.194-84.194s-84.194 37.695-84.194 84.194c0 46.499 37.695 84.194 84.194 84.194s84.194-37.695 84.194-84.194zM106.048 878.494h-86.716c-9.21 0-16.676-7.464-16.676-16.676s7.466-16.676 16.676-16.676h86.716c9.21 0 16.676 7.464 16.676 16.676s-7.466 16.676-16.676 16.676zM110.19 937.238l-86.716 22.236c-8.92 2.288-18.008-3.092-20.296-12.010-2.288-8.926 3.090-18.012 12.012-20.298l86.716-22.234c1.39-0.356 2.782-0.526 4.154-0.526 7.434 0 14.21 5.008 16.142 12.538 2.288 8.922-3.090 18.008-12.012 20.294zM122.202 806.69c-2.288 8.92-11.38 14.294-20.296 12.012l-86.716-22.236c-8.92-2.286-14.3-11.374-12.012-20.296 1.932-7.532 8.71-12.538 16.142-12.538 1.372 0 2.766 0.172 4.154 0.526l86.716 22.234c8.922 2.288 14.3 11.376 12.012 20.298zM1000.64 902.114l-227.542 25.954c-12.812 1.46-24.38-7.74-25.842-20.55l-15.582-136.602c-1.46-12.81 7.74-24.38 20.55-25.842l86.156-9.828-12.046-105.622-116.392-36.47-17.14 85.592c-9.864 49.242-53.47 84.982-103.69 84.982l-147.648 0.002c-29.424 0-57.21-15.612-72.512-40.736l-37.464-61.498-25.026 88.362c-3.032 10.712-10.096 19.188-19.076 24.274v49.126h14.896c6.508 0 11.786 5.276 11.786 11.786v53.546c0 6.508-5.276 11.786-11.786 11.786h-72.344l-51.534 33.728c-3.622 2.37-8.252 2.564-12.060 0.506-3.806-2.058-6.182-6.038-6.182-10.368v-124.848c0-4.33 2.372-8.31 6.182-10.368s8.438-1.866 12.060 0.506l51.534 33.728h12.976v-52.074c-12.978-9.806-19.328-26.878-14.628-43.47l50.388-177.91c9.634-34.022 55.358-40.308 73.782-10.064l53.074 87.126 0.020-642.115c0-26.922 21.826-48.75 48.75-48.75s48.75 21.826 48.75 48.75v389.657h21.048v-389.661c0-26.922 21.826-48.75 48.75-48.75s48.75 21.826 48.75 48.75c0 130.122-0.886 579.855-0.886 640.191l18.432-92.042c4.724-23.596 28.906-38.018 51.98-30.788l197.456 61.874c21.41 6.71 33.328 29.504 26.62 50.912-4.66 14.878-17.090 25.15-31.424 27.796l9.838 86.252 86.156-9.828c12.812-1.46 24.38 7.74 25.842 20.55l15.582 136.604c1.46 12.812-7.742 24.382-20.554 25.844z" />
<glyph unicode="&#xe938;" glyph-name="wpicon_set_-31" d="M674.626 219.63v0l-325.376 0.094c-7.906 0-14.592 5.906-15.53 13.78-3.781 31.935-14.936 77.024-46.839 110.177-0.031 0.062-0.062 0.094-0.125 0.156-78.868 66.619-124.082 163.766-124.082 266.851 0.031 192.607 156.736 349.312 349.312 349.312s349.281-156.704 349.281-349.312c0-103.772-45.777-201.513-125.582-268.132-30.622-32.060-41.777-77.18-45.558-109.146-0.875-7.874-7.562-13.78-15.499-13.78zM362.811 250.971l298.254-0.094c5.843 35.216 19.998 79.743 53.37 114.49 73.931 61.838 115.614 150.861 115.614 245.353-0.031 175.359-142.674 318.033-318.065 318.033s-318.033-142.674-318.033-318.065c0-94.398 41.652-183.389 114.333-244.103 0.937-0.781 1.781-1.687 2.5-2.656 32.403-34.497 46.246-78.243 52.026-112.958zM674.626 125.139h-325.376c-8.624 0-15.624 6.999-15.624 15.624s6.999 15.624 15.624 15.624h325.376c8.624 0 15.624-6.999 15.624-15.624s-6.968-15.624-15.624-15.624zM674.626 30.585h-325.376c-8.624 0-15.624 6.999-15.624 15.624s6.999 15.624 15.624 15.624h325.376c8.624 0 15.624-6.999 15.624-15.624s-6.968-15.624-15.624-15.624zM580.072-64h-136.238c-8.624 0-15.624 6.999-15.624 15.624s6.999 15.624 15.624 15.624h136.238c8.624 0 15.624-6.999 15.624-15.624s-6.999-15.624-15.624-15.624z" />
<glyph unicode="&#xe939;" glyph-name="wpicon_set_-32" d="M837.066 505.075h-30.999v160.648c0 162.324-131.953 294.277-294.067 294.277s-294.067-131.953-294.067-294.067v-160.648h-30.999c-51.734 0-93.624-42.099-93.624-93.624v-382.036c0-51.734 42.099-93.624 93.624-93.624h567.609c20.736 0 37.701 16.965 37.701 37.701s-16.965 37.701-37.701 37.701h-567.609c-10.054 0-18.222 8.169-18.222 18.222v381.827c0 10.054 8.169 18.222 18.222 18.222h650.132c10.054 0 18.222-8.169 18.222-18.222v-382.036c0-20.736 16.965-37.701 37.701-37.701s37.701 16.965 37.701 37.701v382.036c0 51.734-42.099 93.624-93.624 93.624zM730.666 505.285h-437.331v160.648c0 120.643 98.022 218.666 218.666 218.666s218.666-98.022 218.666-218.666v-160.648zM602.482 258.134c-20.736 0-37.701-16.965-37.701-37.701 0-29.114-23.668-52.781-52.781-52.781s-52.781 23.668-52.781 52.781 23.668 52.781 52.781 52.781c20.736 0 37.701 16.965 37.701 37.701s-16.965 37.701-37.701 37.701c-70.585 0-128.183-57.599-128.183-128.183s57.599-128.183 128.183-128.183 128.183 57.599 128.183 128.183c0 20.736-16.965 37.701-37.701 37.701z" />
<glyph unicode="&#xe93a;" glyph-name="wpicon_set_-33" d="M972.8 465.067v375.467c0 47.053-38.281 85.333-85.333 85.333h-750.933c-47.053 0-85.333-38.281-85.333-85.333v-256c-28.228 0-51.2-22.972-51.2-51.2v-512c0-28.228 22.972-51.2 51.2-51.2h375.467c28.228 0 51.2 22.972 51.2 51.2h143.036c16.094 0 30.925 7.339 40.687 20.122s12.937 29.030 8.704 44.544l-33.553 123.068h97.126v-187.733c0-28.228 22.972-51.2 51.2-51.2h187.733c28.228 0 51.2 22.972 51.2 51.2v392.533c0 28.228-22.972 51.2-51.2 51.2zM443.733 21.333c0-9.404-7.663-17.067-17.067-17.067h-375.467c-9.404 0-17.067 7.663-17.067 17.067v34.133h409.6v-34.133zM443.733 89.6h-409.6v375.467h409.6v-375.467zM443.733 499.2h-409.6v34.133c0 9.404 7.663 17.067 17.067 17.067h375.467c9.404 0 17.067-7.663 17.067-17.067v-34.133zM637.372 77.022c1.417-5.171 0.358-10.581-2.901-14.848s-8.192-6.707-13.568-6.707h-143.036v34.133h156.075l3.43-12.578zM477.867 123.733v85.333h123.494l23.279-85.333h-146.773zM733.867 243.2h-256v102.4h256v-102.4zM733.867 413.867v-34.133h-256v153.6c0 28.228-22.972 51.2-51.2 51.2h-341.333v256c0 28.228 22.972 51.2 51.2 51.2h750.933c28.228 0 51.2-22.972 51.2-51.2v-375.467h-153.6c-28.228 0-51.2-22.972-51.2-51.2zM989.867 21.333c0-9.404-7.663-17.067-17.067-17.067h-187.733c-9.404 0-17.067 7.663-17.067 17.067v34.133h221.867v-34.133zM989.867 89.6h-221.867v256h221.867v-256zM989.867 379.733h-221.867v34.133c0 9.404 7.663 17.067 17.067 17.067h187.733c9.404 0 17.067-7.663 17.067-17.067v-34.133zM90.326 221.151l68.268 68.268 24.136-24.136-68.268-68.268-24.136 24.136zM158.586 169.948l204.802 204.802 24.136-24.136-204.802-204.802-24.136 24.136zM192.716 323.528l102.394 102.394 24.136-24.136-102.394-102.394-24.136 24.136zM807.096 221.125l85.318 85.318 24.136-24.136-85.318-85.318-24.136 24.136zM841.223 152.785l85.318 85.318 24.136-24.136-85.318-85.318-24.136 24.136zM448.712 630.732l102.394 102.394 24.136-24.136-102.394-102.394-24.136 24.136zM602.321 664.865l102.394 102.394 24.136-24.136-102.394-102.394-24.136 24.136zM499.908 562.445l68.268 68.268 24.136-24.136-68.268-68.268-24.136 24.136zM585.145 767.049l68.437 68.437 24.136-24.136-68.437-68.437-24.136 24.136zM119.467 857.6h34.133v-34.133h-34.133v34.133zM187.733 857.6h34.133v-34.133h-34.133v34.133zM256 857.6h34.133v-34.133h-34.133v34.133z" />
<glyph unicode="&#xe93b;" glyph-name="wpicon_set_-34" d="M934.471 207.618l-392.175 102.588 346.417 70.83-8.775 45.548-440.021-91.305c-27.162-5.85-19.64-43.668 0-45.548l352.895-93.604-400.741-27.371c-21.938-3.134-26.326-27.789-13.163-41.161l130.795-123.273-285.408-22.774 2.089-45.548 333.254 27.371c16.088-1.254 31.132 23.401 13.163 41.161l-128.496 123.273 487.868 34.266c24.028 1.045 26.744 38.862 2.298 45.548zM962.886 789.090c0 56.831-45.757 102.797-102.379 102.797s-102.379-45.966-102.379-102.797 45.757-102.797 102.379-102.797c54.533 0 102.379 45.966 102.379 102.797zM801.796 787c0 32.803 26.117 59.129 58.711 59.129 30.505 0 58.711-24.028 58.711-56.831s-26.117-59.129-58.711-59.129c-32.594 0-58.711 24.028-58.711 56.831zM1023.896 795.776c0 91.932-73.964 164.224-163.389 164.224-89.216 0-163.389-72.292-163.389-164.224 0-91.723 163.389-337.015 163.389-337.015s163.389 245.292 163.389 337.015zM860.507 916.123c67.487 0 119.721-54.741 119.721-120.348 0-52.443-76.262-183.865-119.721-256.157-43.459 72.292-119.721 203.505-119.721 256.157 0 65.606 52.234 120.348 119.721 120.348zM163.493 396.079c-56.622 0-102.379-45.966-102.379-102.797s45.757-102.797 102.379-102.797c54.533 0 102.379 45.966 102.379 102.797s-45.757 102.797-102.379 102.797zM163.493 233.944c-32.594 0-58.711 24.028-58.711 56.831s26.117 59.129 58.711 59.129c30.505 0 58.711-24.028 58.711-56.831s-26.117-59.129-58.711-59.129zM163.493 463.775c-89.216 0-163.389-72.292-163.389-164.224 0-91.723 163.389-337.015 163.389-337.015s163.389 245.292 163.389 337.015c0 92.141-74.173 164.224-163.389 164.224zM43.772 299.759c0 65.606 52.234 120.348 119.721 120.348s119.721-54.741 119.721-120.348c0-52.443-76.262-183.865-119.721-256.157-43.668 72.292-119.721 203.505-119.721 256.157z" />
<glyph unicode="&#xe93c;" glyph-name="wpicon_set_-35" d="M837.822 695.886c19.306 0 38.456 4.612 55.586 13.268 3.788-0.315 7.747-0.504 11.955-0.504 0.002 0 0.004 0 0.009 0 24.588 0 53.513 5.89 88.429 18.002 3.742 1.3 6.238 4.838 6.21 8.798-0.050 7.184-2.442 176.391-106.053 215.265-10.624 3.986-27.012 9.287-46.571 9.287-11.881 0-23.803-1.977-35.473-5.827-9.941 0.939-46.49 2.853-63.585-17.373-8.539-10.1-10.615-23.446-6.219-39.678-17.871-21.957-27.68-49.417-27.68-77.845 0-68.038 55.353-123.391 123.391-123.391zM837.822 714.368c-57.849 0-104.909 47.062-104.909 104.909 0 20.83 6.195 41.054 17.628 58.193 13.327-21.935 36.166-34.962 56.81-46.708 20.7-11.776 40.254-22.944 47.69-40.906-2.942-17.21-10.339-33.82-24.249-48.475-2.129-2.246-2.996-5.408-2.305-8.426s2.848-5.488 5.745-6.582c3.192-1.205 6.351-2.496 9.696-3.864 4.803-1.966 9.809-4.010 15.208-5.906-6.995-1.45-14.138-2.235-21.313-2.235zM847.387 941.518c16.366 0 30.017-4.334 40.078-8.108 81.063-30.411 92.304-160.536 93.828-191.482-30.028-9.95-54.916-14.797-75.922-14.797 0 0-0.007 0-0.009 0-22.944 0.002-38.13 5.823-52.544 11.705 26.079 34.683 29.469 80.837 9.65 134.404-10.667 28.841-25.436 52.95-34.407 66.214 6.427 1.372 12.89 2.063 19.326 2.063zM762.43 924.853c9.372 11.105 33.27 11.909 45.512 11.089 9.308-12.931 43.585-63.739 48.147-116.1-11.194 10.789-25.527 18.978-39.595 26.982-24.873 14.153-48.369 27.521-56.153 53.711-3.231 10.863-2.548 18.819 2.090 24.318zM109.925 77.586c-20.143 0-36.529-16.386-36.529-36.529s16.386-36.529 36.529-36.529 36.529 16.386 36.529 36.529-16.386 36.529-36.529 36.529zM109.925 23.010c-9.95 0-18.047 8.097-18.047 18.047s8.097 18.047 18.047 18.047 18.047-8.097 18.047-18.047-8.097-18.047-18.047-18.047zM1022.269 228.916l-77.758 368.514c-11.302 55.19-54.794 95.246-103.413 95.246-48.745 0-92.252-40.065-103.43-95.19l-15.425-73.076-50.178 24.188c-7.543 3.623-15.592 5.458-23.922 5.458-21.337 0-41.091-12.431-50.326-31.668-3.357-6.993-5.099-14.351-5.388-21.652h-118.821c-0.007 0-0.015-0.002-0.022-0.002h-442.676c-8.387 0-16.077-3.314-21.646-9.33-5.573-6.019-8.287-13.938-7.641-22.303l21.311-276.306c1.285-16.658 15.921-30.209 32.629-30.209h353.705c16.314 0 31.972 12.448 35.649 28.341l64.157 277.3c1.115 4.821 0.972 9.626-0.272 14.027h43.007l-99.897-433.358h-13.468c-3.955 40.998-38.595 73.161-80.613 73.161-42.118 0-76.814-32.313-80.639-73.446-0.702 0.17-1.422 0.285-2.177 0.285h-84.476c-3.955 40.998-38.597 73.161-80.617 73.161-44.664 0-81-36.338-81-81.002s36.336-81.002 81-81.002c41.056 0 75.053 30.711 80.282 70.358h84.811c0.865 0 1.687 0.157 2.485 0.381 5.062-39.832 39.143-70.739 80.33-70.739 41.054 0 75.048 30.711 80.278 70.358h21.157c4.305 0 8.036 2.97 9.006 7.165l102.506 444.672h24.057c4.394-14.336 14.536-26.877 29.104-33.872l74.668-35.995-38.723-183.467c-0.576-2.727 0.109-5.566 1.863-7.73s4.392-3.42 7.178-3.42h108.851v-218.465c0-34.903 28.395-63.298 63.298-63.298 34.905 0 63.302 28.397 63.302 63.298v218.47h108.851c2.785 0 5.423 1.257 7.178 3.42 1.753 2.163 2.44 5.003 1.863 7.728zM109.923-21.463c-34.472 0-62.517 28.045-62.517 62.52s28.045 62.52 62.517 62.52c34.472 0 62.522-28.045 62.522-62.52s-28.047-62.52-62.522-62.52zM357.832-21.463c-34.475 0-62.522 28.045-62.522 62.52s28.047 62.52 62.522 62.52c34.472 0 62.517-28.045 62.517-62.52s-28.047-62.52-62.517-62.52zM135.57 482.247l4.344-75.307h-47.123l-3.938 75.307h46.716zM22.827 478.842c2.035 2.196 4.905 3.405 8.086 3.405h39.437l3.94-75.307h-49.334l-4.903 63.579c-0.244 3.172 0.741 6.127 2.774 8.323zM26.382 388.46h48.871l3.883-74.292h-47.025l-5.729 74.292zM491.066 472.389l-64.157-277.3c-1.729-7.473-9.972-14.025-17.641-14.025h-353.705c-7.147 0-13.651 6.023-14.201 13.151l-1.12 14.497h240.57c5.105 0 9.241 4.136 9.241 9.241s-4.136 9.241-9.241 9.241h-241.994l-5.284 68.493h46.566l1.587-30.38c0.257-4.934 4.338-8.758 9.219-8.758 0.163 0 0.326 0.004 0.491 0.013 5.097 0.265 9.015 4.614 8.745 9.711l-1.537 29.415h173.506c5.105 0 9.241 4.136 9.241 9.241s-4.136 9.241-9.241 9.241h-174.471l-3.886 74.292h47.225l3.042-52.761c0.285-4.914 4.357-8.708 9.217-8.708 0.178 0 0.359 0.004 0.541 0.015 5.095 0.296 8.987 4.664 8.693 9.759l-2.983 51.693h261.929c5.105 0 9.241 4.136 9.241 9.241s-4.136 9.241-9.241 9.241h-262.992l-4.344 75.307h329.143c2.909 0 5.282-0.97 6.682-2.733 1.402-1.761 1.813-4.292 1.157-7.125zM614.479 514.387c6.177 12.868 19.393 21.183 33.664 21.183 5.54 0 10.898-1.224 15.91-3.629l72.646-35.018c2.207-1.063 4.749-1.207 7.062-0.4s4.21 2.503 5.275 4.71l45.664 94.731c6.16 12.829 19.274 21.12 33.414 21.12 5.529 0 10.894-1.229 15.942-3.655 8.952-4.297 15.712-11.826 19.034-21.209 3.322-9.378 2.794-19.454-1.481-28.36l-65.823-136.548c-6.16-12.829-19.276-21.117-33.418-21.117-5.408 0-10.657 1.174-15.749 3.559-0.065 0.037-0.13 0.070-0.191 0.1-0.152 0.076-0.309 0.148-0.463 0.215l-114.017 54.962c-18.443 8.861-26.282 30.998-17.469 49.358zM885.895-0.702c0-12.518-5.173-23.838-13.475-31.978v108.582c0 5.105-4.136 9.241-9.241 9.241s-9.241-4.136-9.241-9.241v-119.516c-4.079-1.226-8.391-1.903-12.864-1.903-24.712 0-44.816 20.104-44.816 44.816v218.47h89.638v-218.47zM680.319 236.25l35.431 167.87 22.513-10.852c0.022-0.011 0.043-0.022 0.061-0.030 0.037-0.020 0.072-0.037 0.107-0.050 7.565-3.631 15.618-5.473 23.94-5.473 21.204 0 40.863 12.405 50.071 31.585l65.823 136.55c6.427 13.385 7.223 28.495 2.248 42.544-4.966 14.016-15.075 25.275-28.458 31.698-7.565 3.633-15.621 5.475-23.942 5.475-21.204 0-40.861-12.405-50.067-31.589l-35.788-74.244 13.507 64.007c9.456 46.616 45.342 80.454 85.333 80.454 39.88 0 75.757-33.842 85.318-80.523l48.573-230.209h-104.202c-5.105 0-9.241-4.136-9.241-9.241s4.136-9.241 9.241-9.241h108.103l8.487-40.226h-213.851c-5.105 0-9.241-4.136-9.241-9.241s4.136-9.241 9.241-9.241h215.263c0.841 0 1.639 0.148 2.411 0.359l10.63-50.38h-321.511zM863.179 94.925c5.105 0 9.241 4.136 9.241 9.241v54.359c0 5.105-4.136 9.241-9.241 9.241s-9.241-4.136-9.241-9.241v-54.359c0-5.103 4.136-9.241 9.241-9.241zM357.83 77.586c-20.143 0-36.529-16.386-36.529-36.529s16.386-36.529 36.529-36.529 36.529 16.386 36.529 36.529-16.386 36.529-36.529 36.529zM357.83 23.010c-9.95 0-18.047 8.097-18.047 18.047s8.097 18.047 18.047 18.047 18.047-8.097 18.047-18.047-8.097-18.047-18.047-18.047z" />
<glyph unicode="&#xe93d;" glyph-name="wpicon_set_-36" d="M982.025 919.166c-26.315 26.329-61.753 40.834-99.789 40.834-40.507 0-78.941-16.133-108.253-45.435l-146.673-156.76-504.44 150.995-98.478-98.487c-10.438-10.424-16.175-24.303-16.175-39.059 0.009-14.746 5.752-28.616 16.185-39.040l3.143-3.153 378.435-208.283-133.371-144.68c-9.913-9.969-18.656-20.706-26.14-32.1l-165.073 42.723-65.824-65.833c-19.233-19.233-19.233-50.538 0-69.781l3.527-3.536 188.145-95.434 9.988-9.988 95.448-188.145 3.517-3.517c9.33-9.34 21.723-14.485 34.926-14.485 13.179 0 25.563 5.136 34.879 14.438l65.824 65.824-43.556 168.306c10.883 7.276 21.141 15.693 30.68 25.17l145.338 133.995 209.869-381.323 3.153-3.143c10.433-10.443 24.303-16.194 39.059-16.194 14.746 0 28.616 5.752 39.040 16.185l98.487 98.478-152.003 507.858 155.515 145.508c28.185 28.176 44.299 65.156 45.383 104.12 1.117 39.622-13.364 76.541-40.768 103.945zM933.892 756.1l-183.104-171.293 152.419-509.217-64.404-64.404-238.168 432.751-205.476-189.457c-11.101-11.115-23.541-20.086-36.971-26.703l-22.855-11.262 46.917-181.3-26.912-26.912-86.776 171.052-24.095 24.095-171.019 86.747 26.912 26.921 178.569-46.207 11.134 23.238c6.623 13.809 15.797 26.632 27.286 38.131l188.822 204.799-429.873 236.591 64.404 64.404 505.818-151.402 172.065 183.947c17.435 17.259 40.015 26.756 63.641 26.756 21.307 0 41.019-7.981 55.523-22.486 15.101-15.11 23.082-35.674 22.457-57.923-0.634-22.907-10.244-44.777-26.315-60.867z" />
<glyph unicode="&#xe93e;" glyph-name="wpicon_set_-37" d="M691.146 489.256c-6.354-9.766-9.747-21.295-9.747-32.943 0-19.352 9.517-37.86 25.223-49.157 15.93-11.451 36.988-14.437 55.479-7.884 17.977 6.373 32.228 21.305 37.728 39.568 5.656 18.775 1.691 39.623-10.479 54.994-12.066 15.234-31.071 23.854-50.476 22.898-19.246-0.941-37.227-11.326-47.729-27.477zM855.308 248.931c0.119-3.314-0.077 3.318 0 0v0zM311.342 694.753c14.374-7.734 30.59-11.777 46.909-11.777 38.778 0 74.823 23.421 90.602 58.847 15.984 35.886 8.748 79.003-17.977 107.753-26.706 28.736-69.053 39.119-106.018 25.897-36.348-13.001-62.437-47.074-65.436-85.564-3.025-38.845 17.6-76.686 51.919-95.156zM482.436 779.583c18.928-17.080 43.863-26.656 69.356-26.656 38.732 0 75.016 22.355 92.478 56.926 17.705 35.044 13.651 78.332-10.197 109.499-23.764 31.061-63.978 46.282-102.367 38.738-37.676-7.404-68.923-36.152-79.488-73.061-10.78-37.687 1.131-79.195 30.218-105.447zM819.725 231.162c1.008-9.4 9.478-16.536 18.903-15.99 9.31 0.537 16.82 8.453 16.898 17.772 0.044 5.346-0.029 10.646-0.217 15.988-0.286 12.505-2.816 25.468-6.461 37.411-3.14 10.295-7.182 20.31-12.319 29.773-12.557 23.126-30.496 43.223-52.042 58.344-5.035 3.529-10.368 7.22-16.13 9.452-16.354 8.008-35.968 8.102-52.402 0.261-4.407-1.551-8.47-4.152-12.373-6.674-4.859-3.136-9.515-6.58-14.006-10.224-10.446-8.474-19.917-18.194-28.104-28.866-14.341-18.688-24.945-40.614-29.744-63.734-2.871-13.856-3.803-27.615-3.697-41.734 0.069-9.452 7.792-17.4 17.224-17.791 9.319-0.389 17.573 6.745 18.581 16.009 2.112 19.917 6.86 39.522 17.78 56.604v-19.398l-39.957-161.391c-1.794-6.96-2.973-14.157 10.605-14.157h33.191l6.157-134.754c0.539-11.031 9.927-20.019 20.981-20.009 10.968 0.013 20.277 8.867 20.877 19.814l7.46 134.95h2.237l6.155-134.754c0.539-11.031 9.927-20.019 20.981-20.009 10.968 0.015 20.279 8.867 20.883 19.814l7.454 134.95h32.472c3.552 0 6.891 1.572 9.156 4.311 2.266 2.745 3.18 6.318 2.484 9.881l-40.595 161.993v18.414c11.023-16.678 15.499-36.702 17.569-56.259zM629.503 99.268l13.783 59.665 1.873 37.022c-17.191 4.328-29.666 19.743-29.794 37.914-0.146 16.647 1.089 32.938 4.857 49.182s9.825 31.638 17.755 46.271c4.7 8.668 10.291 16.908 16.363 24.663 0.744 6.764 0.621 13.55 0.621 20.346 0 9.528 0 19.058 0 28.587 0 27.431 0 54.865 0 82.296 0 19.643 0 39.284 0 58.927 0 1.029 0 2.055 0 3.084 8.756-18.88 14.889-38.648 19.871-58.822 10.776 26.271 33.875 39.572 65.816 44.85-5.275 20.502-13.63 46.048-22.468 65.335-11.286 24.617-24.983 47.973-42.077 69.038-11.161 13.76-23.643 26.398-37.164 37.835-6.599 5.484-13.461 10.684-20.632 15.399-6.026 3.96-12.499 7.468-19.033 10.573-67.934 32.282-121.87-20.162-123.206-21.345-14.498-12.877-28.993-25.754-43.491-38.636 38.251-26.961 69.87-62.759 92.037-103.935 14.19-26.357 24.032-55.368 28.907-84.89 3.316-20.070 4.246-40.127 4.079-60.453-0.232-27.661-23.668-50.735-51.342-50.497-4.198 0.036-8.282 0.575-12.189 1.574 0 0 38.115-139.034 40.275-147.913 2.919-12.022 3.92-37.018-23.915-37.018-31.101 0-46.207 0-46.207 0l-3.536-62.416 6.362-152.402c0.853-18.903 16.894-34.354 35.834-34.368 18.859-0.017 34.87 15.236 35.822 34.059l12.892 255.326 10.655-255.014c0.853-18.903 16.898-34.356 35.834-34.368 18.861-0.015 34.87 15.236 35.822 34.061l5.605 110.904c-14.608 1.152-10.011 15.169-10.011 15.169zM504.973 199.285c5.325 0 10.329 2.356 13.722 6.465 3.395 4.115 4.872 8.804 3.724 14.807l-68.543 248.579v39.355c9.927-15.323 16.946-33.007 21.667-50.58 3.68-13.695 5.599-27.54 7.1-41.609 1.645-15.336 15.42-27.009 30.802-26.214 15.33 0.792 27.741 13.793 27.866 29.135 0.077 9.45 0.004 18.83-0.46 28.27-0.634 12.963-2.655 25.936-5.29 38.627-5.501 26.463-15.296 52.128-28.767 75.565-13.479 23.467-30.509 44.839-50.141 63.451-9.434 8.944-19.503 17.249-30.084 24.801-8.098 5.779-16.572 11.535-25.65 15.664-0.809 0.368-1.629 0.692-2.459 1.008-26.796 13.113-58.927 13.277-85.846 0.422-9.563-3.364-18.355-9.444-26.62-15.185-10.467-7.268-20.394-15.294-29.785-23.902-20.009-18.334-37.070-39.545-51.082-62.755-7.015-11.621-13.011-23.954-18.050-36.553-4.932-12.348-9.245-25.324-11.928-38.364-2.682-13.019-4.639-25.957-5.909-39.192-1.001-10.441-0.784-20.971-0.707-31.443 0.004-0.136 0.004-0.278 0.004-0.418 0.115-15.432 12.672-28.42 28.071-29.141 15.326-0.719 28.949 10.983 30.599 26.227 1.507 14.069 3.427 27.914 7.1 41.605 4.807 17.887 12.047 35.502 22.027 51.147v-36.928l-68.739-251.623c-1.029-5.244 0.33-10.611 3.717-14.734 3.393-4.123 8.403-6.49 13.743-6.49h57.215l10.456-230.493c0.882-18.016 16.174-32.729 34.233-32.786 18.029-0.054 33.375 14.47 34.364 32.46l12.653 230.815h2.875l10.452-230.493c0.882-18.016 16.179-32.729 34.233-32.786 18.029-0.054 33.38 14.47 34.368 32.46l12.653 230.815 56.416 0.013z" />
<glyph unicode="&#xe93f;" glyph-name="wpicon_set_-38" d="M851.171 506.754c-27.766 0-50.361-22.595-50.361-50.361v-167.869c0-27.766 22.595-50.361 50.361-50.361s50.361 22.595 50.361 50.361v167.869c0 27.766-22.595 50.361-50.361 50.361zM867.958 288.525c0-9.266-7.537-16.787-16.787-16.787s-16.787 7.521-16.787 16.787v167.869c0 9.266 7.537 16.787 16.787 16.787s16.787-7.521 16.787-16.787v-167.869zM1011.485 3.114l-26.020 169.178v300.888c0 46.483-27.195 86.62-66.442 105.673 29.981 21.319 49.656 56.253 49.656 95.769 0 64.781-52.711 117.508-117.508 117.508s-117.508-52.728-117.508-117.508c0-39.516 19.674-74.45 49.656-95.769-22.948-11.146-41.749-29.461-53.399-52.106l-169.061-169.044c-18.919-18.936-19.406-49.219-1.813-68.977l-43.612-43.612-83.934 83.934v177.706h33.574c9.266 0 16.787 7.504 16.787 16.787v83.934c0 9.283-7.521 16.787-16.787 16.787h-50.361v67.148c0 53.047-41.245 96.541-93.352 100.352 16.233 17.878 26.204 41.531 26.204 67.517 0 55.548-45.174 100.721-100.721 100.721s-100.721-45.174-100.721-100.721c0-25.986 9.971-49.639 26.204-67.517-52.106-3.811-93.352-47.305-93.352-100.352v-67.148h-67.148v-33.574h436.459v-50.361h-33.574c-9.266 0-16.787-7.504-16.787-16.787v-194.493l-174.819-174.819h-211.28v-33.574h177.706l-21.705-21.705c-6.564-6.564-6.564-17.173 0-23.737l112.59-112.59v-26.624h33.574v26.624l230.098 230.098c6.564 6.564 6.564 17.173 0 23.737l-4.919 4.919 48.867 48.867c3.676-0.839 7.453-1.393 11.314-1.393 13.446 0 26.104 5.238 35.605 14.756l81.92 81.903v-239.767l-80.711-121.067c-7.017-10.525-9.182-23.586-5.943-35.823 3.257-12.238 11.6-22.511 22.998-28.202 6.11-3.038 12.943-4.65 19.758-4.65h29.26c14.789 0 28.521 7.353 36.73 19.657l92.596 138.895c1.83 2.753 2.82 6.010 2.82 9.317v50.361h35.958l25.969-168.842c4.415-28.622 28.638-49.387 57.579-49.387h0.034c17.022 0 33.137 7.403 44.217 20.329s15.948 29.965 13.346 46.785zM246.843 926.426c37.032 0 67.148-30.116 67.148-67.148s-30.116-67.148-67.148-67.148-67.148 30.116-67.148 67.148 30.116 67.148 67.148 67.148zM381.138 624.262h-50.361v67.148h-33.574v-67.148h-100.721v67.148h-33.574v-67.148h-50.361v67.148c0 37.032 30.116 67.148 67.148 67.148h134.295c37.032 0 67.148-30.116 67.148-67.148v-67.148zM297.203-6.69l-93.772 93.772 211.28 211.28 93.772-93.772-211.28-211.28zM767.236 674.623c0 46.281 37.653 83.934 83.934 83.934s83.934-37.653 83.934-83.934c0-17.358-5.288-33.49-14.353-46.886-11.482 5.405-19.221 16.871-19.221 30.099h-33.574c0-22.159 10.861-41.816 27.799-54.054-12.959-8.175-28.168-13.094-44.586-13.094-46.281 0-83.934 37.653-83.934 83.934zM611.236 307.343c-6.329-6.362-17.391-6.362-23.737 0l-2.871 2.887c-6.547 6.547-6.547 17.19 0 23.737l132.247 132.247v-53.231l-105.64-105.64zM800.81 108.955l-89.776-134.664c-1.964-2.971-5.254-4.717-8.813-4.717h-29.26c-1.645 0-3.273 0.369-4.801 1.142-3.71 1.847-5.036 5.019-5.489 6.732s-0.873 5.137 1.427 8.595l83.532 125.297c1.83 2.753 2.82 6.010 2.82 9.317v33.574h50.361v-45.274zM884.744 187.803h-134.295v285.377c0 5.238 0.621 10.324 1.544 15.293 0.151 0.806 0.235 1.612 0.42 2.401 0.94 4.381 2.333 8.578 3.945 12.674 0.554 1.393 1.108 2.787 1.729 4.163 13.211 29.058 42.353 49.404 76.296 49.404h33.574c46.281 0 83.934-37.653 83.934-83.934v-285.377h-67.148zM972.657-21.798c-4.7-5.473-11.549-8.628-18.768-8.628-12.271 0-22.528 8.796-24.391 20.933l-25.18 163.722h49.975l24.039-156.236c1.074-7.101-0.99-14.336-5.674-19.792zM710.161 839.134l-134.295 100.721c-5.103 3.844-11.885 4.432-17.576 1.595-5.691-2.854-9.283-8.662-9.283-15.024v-48.128l-115.427 14.42c-4.835 0.554-9.585-0.89-13.194-4.062-3.609-3.19-5.674-7.772-5.674-12.59v-117.508c0-4.818 2.065-9.401 5.674-12.59 3.609-3.173 8.36-4.65 13.194-4.062l115.427 14.42v-48.128c0-6.597 3.844-12.557 9.854-15.276 2.216-1.024 4.583-1.511 6.933-1.511 3.995 0 7.94 1.427 11.063 4.146l134.295 117.508c3.794 3.341 5.909 8.209 5.724 13.278-0.201 5.053-2.669 9.753-6.715 12.792zM582.58 745.195v30.149c0 4.818-2.065 9.401-5.674 12.59-3.089 2.719-7.050 4.197-11.113 4.197-0.688 0-1.393-0.050-2.082-0.134l-115.427-14.42v79.469l115.427-14.42c4.835-0.571 9.585 0.89 13.194 4.062 3.609 3.19 5.674 7.772 5.674 12.59v33.574l90.867-68.155-90.867-79.503z" />
<glyph unicode="&#xe940;" d="M370.758 218.482v-211.862h282.482v211.862h-282.482z" />
<glyph unicode="&#xe941;" d="M538.482-64h-52.966c-15.89 0-31.78 7.062-42.372 21.186l-37.076 49.434h211.862l-37.076-49.434c-10.592-14.124-26.482-21.186-42.372-21.186z" />
<glyph unicode="&#xe942;" d="M845.682 654.566c-17.654 158.896-144.772 286.014-303.668 303.668-10.594 0-19.42 1.766-30.014 1.766s-19.42 0-30.014-1.766c-158.896-17.654-286.014-146.538-303.668-303.668-12.358-112.994 30.014-215.394 104.166-286.014 42.372-40.606 77.682-93.572 88.276-150.068h282.482c10.594 56.496 45.904 109.462 88.276 150.068 74.15 70.62 116.524 173.020 104.164 286.014z" />
<glyph unicode="&#xe943;" d="M653.242 642.206h-105.932l88.276 158.896h-105.932l-123.586-229.518h88.276l-88.276-229.518 247.174 300.14z" />
<glyph unicode="&#xe944;" d="M494.344 130.206c10.594 0 17.656 7.062 17.656 17.656s-7.062 17.656-17.656 17.656h-123.586v-35.31h123.586z" />
<glyph unicode="&#xe945;" d="M441.38 59.586c10.594 0 17.656 7.062 17.656 17.656s-7.062 17.656-17.656 17.656h-70.62v-35.31h70.62z" />
<glyph unicode="&#xe946;" d="M653.242 165.518h-70.62c-10.594 0-17.656-7.062-17.656-17.656s7.062-17.656 17.656-17.656h70.62v35.312z" />
<glyph unicode="&#xe947;" d="M529.656 94.896c-10.594 0-17.656-7.062-17.656-17.656s7.062-17.656 17.656-17.656h123.586v35.31h-123.586z" />
<glyph unicode="&#xe948;" glyph-name="wpicon_set_-40" d="M995.034-28.602l-461.709 526.517v107.091h297.069c8.311 0 15.866 4.828 19.358 12.369s2.287 16.425-3.089 22.763l-74.784 88.181 73.282 82.485c5.579 6.278 6.955 15.247 3.514 22.91-3.443 7.663-11.061 12.591-19.46 12.591h-295.889v21.329c16.86 7.539 28.646 24.482 28.646 44.139 0 26.59-21.641 48.226-48.241 48.226-26.618 0-48.273-21.636-48.273-48.226 0-18.285 10.199-34.227 25.201-42.432v-372.48l-461.664-524.401c-5.536-6.289-6.878-15.236-3.433-22.871 3.445-7.637 11.042-12.548 19.42-12.559l933.988-1.030c0.009 0 0.015 0 0.023 0 8.369 0 15.968 4.894 19.426 12.518 3.465 7.629 2.14 16.58-3.386 22.88zM533.325 803.639h248.397l-53.858-60.623h-194.539v60.623zM533.325 700.352h206.33l44.674-52.676h-251.004v52.676zM512.433 457.026l163.991-187.010-74.549-64.395-49.732 77.807c-3.482 5.446-9.244 9.020-15.669 9.719-6.428 0.693-12.823-1.553-17.393-6.125l-118.526-118.545-53.382 100.83 165.261 187.718zM92.164-20.354l224.86 255.415 59.339-112.079c3.168-5.984 8.988-10.108 15.684-11.115 1.058-0.158 2.118-0.237 3.172-0.237 5.615 0 11.055 2.219 15.085 6.251l120.181 120.203 48.708-76.207c3.334-5.216 8.77-8.727 14.895-9.621 6.127-0.89 12.337 0.917 17.024 4.966l93.44 80.713 227.311-259.217-839.699 0.928z" />
<glyph unicode="&#xe949;" glyph-name="wpicon_set_-41" d="M815.407 578.598v106.439c0 151.609-136.116 274.963-303.407 274.963s-303.407-123.354-303.407-274.963v-106.439c-64.493-11.112-113.778-67.319-113.778-134.959v-370.574c0-75.567 61.497-137.064 137.083-137.064h560.204c75.586 0 137.083 61.497 137.083 137.083v370.574c0 67.622-49.285 123.828-113.778 134.94zM246.519 685.037c0 130.712 119.087 237.037 265.481 237.037s265.481-106.325 265.481-237.037v-104.296h-530.963v104.296zM891.259 73.083c0-54.67-44.487-99.157-99.157-99.157h-560.204c-54.67 0-99.157 44.487-99.157 99.157v370.574c0 54.67 44.487 99.157 99.157 99.157h560.204c54.67 0 99.157-44.487 99.157-99.157v-370.574zM512 429.037c-41.832 0-75.852-34.020-75.852-75.852v-113.778c0-41.832 34.020-75.852 75.852-75.852s75.852 34.020 75.852 75.852v113.778c0 41.832-34.020 75.852-75.852 75.852zM549.926 239.407c0-20.916-17.010-37.926-37.926-37.926s-37.926 17.010-37.926 37.926v113.778c0 20.916 17.010 37.926 37.926 37.926s37.926-17.010 37.926-37.926v-113.778z" />
<glyph unicode="&#xe94a;" glyph-name="wpicon_set_-42" d="M938.667 960h-853.333c-47.053 0-85.333-38.281-85.333-85.333v-597.333c0-47.053 38.281-85.333 85.333-85.333h286.754l-27.921-153.6h-67.055c-19.524 0-37.069-10.837-45.807-28.297-7.987-15.991-7.151-34.611 2.236-49.818s25.685-24.286 43.554-24.286h469.794c17.869 0 34.15 9.079 43.554 24.286s10.24 33.826 2.236 49.818c-8.704 17.459-26.249 28.297-45.773 28.297h-67.055l-27.921 153.6h286.737c47.053 0 85.333 38.281 85.333 85.333v597.333c0 47.053-38.281 85.333-85.333 85.333zM665.6 4.267h81.306c6.502 0 12.356-3.618 15.275-9.438 3.84-7.68 0.751-14.165-0.734-16.606-1.536-2.423-5.956-8.090-14.541-8.090h-469.811c-8.585 0-13.022 5.666-14.524 8.107s-4.591 8.909-0.734 16.606c2.901 5.803 8.755 9.421 15.258 9.421h217.839c9.421 0 17.067 7.646 17.067 17.067s-7.646 17.067-17.067 17.067h-116.087l27.921 153.6h210.449l27.938-153.6h-47.821c-9.421 0-17.067-7.646-17.067-17.067s7.646-17.067 17.067-17.067h68.267zM989.867 277.333c0-28.228-22.972-51.2-51.2-51.2h-853.333c-28.228 0-51.2 22.972-51.2 51.2v51.2h955.733v-51.2zM989.867 362.667h-955.733v512c0 28.228 22.972 51.2 51.2 51.2h853.333c28.228 0 51.2-22.972 51.2-51.2v-512zM460.8 618.667h-170.667v170.667c0 9.421-7.646 17.067-17.067 17.067-112.93 0-204.8-91.87-204.8-204.8s91.87-204.8 204.8-204.8c112.93 0 204.8 91.87 204.8 204.8 0 9.421-7.646 17.067-17.067 17.067zM273.067 430.933c-94.106 0-170.667 76.561-170.667 170.667 0 88.337 67.482 161.229 153.6 169.813v-169.813c0-9.421 7.646-17.067 17.067-17.067h169.813c-8.585-86.118-81.476-153.6-169.813-153.6zM341.333 874.667c-9.421 0-17.067-7.646-17.067-17.067v-187.733c0-9.421 7.646-17.067 17.067-17.067h187.733c9.421 0 17.067 7.646 17.067 17.067 0 112.93-91.87 204.8-204.8 204.8zM358.4 686.933v152.747c80.503-8.021 144.725-72.243 152.747-152.747h-152.747zM938.667 891.733h-341.333c-9.421 0-17.067-7.646-17.067-17.067v-460.8c0-9.421 7.646-17.067 17.067-17.067h341.333c9.421 0 17.067 7.646 17.067 17.067v460.8c0 9.421-7.646 17.067-17.067 17.067zM921.6 430.933h-307.2v426.667h307.2v-426.667zM768 806.4h-102.4c-9.421 0-17.067-7.646-17.067-17.067s7.646-17.067 17.067-17.067h102.4c9.421 0 17.067 7.646 17.067 17.067s-7.646 17.067-17.067 17.067zM870.4 738.133h-204.8c-9.421 0-17.067-7.646-17.067-17.067s7.646-17.067 17.067-17.067h204.8c9.421 0 17.067 7.646 17.067 17.067s-7.646 17.067-17.067 17.067zM768 669.867h-102.4c-9.421 0-17.067-7.646-17.067-17.067s7.646-17.067 17.067-17.067h102.4c9.421 0 17.067 7.646 17.067 17.067s-7.646 17.067-17.067 17.067zM870.4 601.6h-204.8c-9.421 0-17.067-7.646-17.067-17.067s7.646-17.067 17.067-17.067h204.8c9.421 0 17.067 7.646 17.067 17.067s-7.646 17.067-17.067 17.067zM768 533.333h-102.4c-9.421 0-17.067-7.646-17.067-17.067s7.646-17.067 17.067-17.067h102.4c9.421 0 17.067 7.646 17.067 17.067s-7.646 17.067-17.067 17.067zM546.133 294.4h-68.267c-9.421 0-17.067-7.646-17.067-17.067s7.646-17.067 17.067-17.067h68.267c9.421 0 17.067 7.646 17.067 17.067s-7.646 17.067-17.067 17.067z" />
</font>
</defs>
</svg>
